<svg width="2065" height="2065" viewBox="0 0 2065 2065" fill="none" xmlns="http://www.w3.org/2000/svg">
<rect x="1125.41" y="767.786" width="117.427" height="117.429" fill="#2AC558"/>
<path d="M1242.83 738.429H1213.48V738.395H1096.14V864.351H1096.05V885.214H978.62V864.351H978.523V726.678H978.618V621H1242.83V738.429Z" fill="white"/>
<path d="M949.427 679.714H949.395V914.572H949.427V914.599H1066.79V914.668H1184.28V914.572H1242.99V1032H1055.42V1031.99H949.427V1032H832V621H949.427V679.714Z" fill="white"/>
<path d="M459.527 1245.72H535.991V1281H420.954V1118.31H459.527V1245.72ZM565.892 1148.83L565.665 1148.72C559.765 1148.72 554.774 1146.68 550.576 1142.59C546.379 1138.51 544.336 1133.52 544.336 1127.62C544.336 1121.83 546.492 1116.95 550.69 1112.98C554.887 1109.01 559.879 1106.97 565.778 1106.97C571.678 1106.97 576.669 1109.01 580.867 1113.1C585.065 1117.18 587.22 1122.06 587.22 1127.73C587.22 1133.63 585.178 1138.62 580.98 1142.71C576.783 1146.79 571.791 1148.83 565.892 1148.83ZM546.605 1280.89V1162.45H583.703V1280.89H546.605ZM677.589 1159.27V1159.5C692.904 1159.5 704.476 1164.26 712.191 1173.68C719.905 1183.09 723.762 1195.91 723.762 1212.14V1281.11H686.665V1219.51C686.665 1202.38 679.631 1193.76 665.45 1193.76C658.302 1193.76 652.743 1196.37 648.659 1201.59C644.575 1206.8 642.533 1213.95 642.533 1223.14V1281H605.322V1162.56H642.533V1174.81C651.496 1164.49 663.181 1159.27 677.589 1159.27ZM801.652 1284.29L801.538 1284.4C782.138 1284.4 766.483 1278.62 754.457 1267.05C742.431 1255.47 736.419 1240.5 736.419 1222.01C736.419 1203.85 742.205 1188.88 753.776 1177.08C765.348 1165.28 780.437 1159.38 799.156 1159.38C818.215 1159.38 833.304 1165.17 844.422 1176.74C855.54 1188.31 861.099 1202.95 861.099 1220.65C861.099 1225.3 860.758 1229.38 860.191 1232.9H772.609C775.445 1246.51 785.315 1253.32 802.219 1253.32C813.564 1253.32 821.505 1249.35 825.93 1241.29L859.397 1251.05C855.653 1259.56 848.733 1267.27 838.522 1274.08C828.312 1280.89 816.06 1284.29 801.652 1284.29ZM772.722 1210.66H824.909C824.341 1205.1 821.732 1200.34 816.967 1196.37C812.202 1192.4 806.19 1190.47 798.929 1190.47C791.668 1190.47 785.655 1192.51 781.004 1196.48C776.353 1200.45 773.63 1205.22 772.722 1210.66ZM925.828 1284.29H925.715C909.605 1284.29 895.991 1278.28 884.873 1266.37C873.755 1254.45 868.196 1239.59 868.196 1221.78C868.196 1203.97 873.755 1189.11 884.873 1177.19C895.991 1165.28 909.605 1159.27 925.715 1159.27C939.782 1159.27 951.127 1164.03 959.863 1173.45V1162.56H997.074V1281H959.863V1270.11C950.9 1279.53 939.555 1284.29 925.828 1284.29ZM932.522 1251.28L932.408 1251.39C940.69 1251.39 947.497 1248.67 952.829 1243.11C958.161 1237.55 960.884 1230.4 960.884 1221.67C960.884 1212.93 958.161 1205.9 952.829 1200.45C947.497 1195.01 940.69 1192.28 932.522 1192.28C924.467 1192.28 917.887 1195.01 912.668 1200.45C907.449 1205.9 904.84 1212.93 904.84 1221.67C904.84 1230.52 907.449 1237.66 912.668 1243.11C917.887 1248.55 924.467 1251.28 932.522 1251.28ZM1018.01 1281V1111.39H1055.22V1281H1018.01Z" fill="white"/>
<path d="M1235.8 1153.26H1151.06V1181.51H1224V1215.2H1151.06V1246.17H1235.57V1281H1113.39V1118.31H1235.8V1153.26ZM1334.57 1111.39H1371.66V1281H1334.45V1270.11C1325.49 1279.53 1314.14 1284.29 1300.42 1284.29C1284.31 1284.29 1270.69 1278.28 1259.58 1266.37C1248.46 1254.45 1242.9 1239.59 1242.9 1221.78C1242.9 1203.97 1248.46 1189.11 1259.58 1177.19C1270.69 1165.28 1284.31 1159.27 1300.42 1159.27C1314.49 1159.27 1325.83 1164.03 1334.57 1173.45V1111.39ZM1307.11 1251.28L1307 1251.39C1315.28 1251.39 1322.09 1248.67 1327.42 1243.11C1332.75 1237.55 1335.47 1230.4 1335.47 1221.67C1335.47 1212.93 1332.75 1205.9 1327.42 1200.45C1322.09 1195.01 1315.28 1192.28 1307.11 1192.28C1299.06 1192.28 1292.48 1195.01 1287.26 1200.45C1282.04 1205.9 1279.43 1212.93 1279.43 1221.67C1279.43 1230.52 1282.04 1237.66 1287.26 1243.11C1292.48 1248.55 1299.06 1251.28 1307.11 1251.28ZM1476.21 1162.56L1513.42 1162.79V1276.8C1513.42 1293.48 1507.75 1307.09 1496.41 1317.53C1485.06 1327.97 1469.97 1333.19 1451.03 1333.19C1424.14 1333.19 1404.97 1322.86 1393.62 1302.21L1425.73 1290.64C1431.06 1298.92 1439.8 1303.01 1451.93 1303.01C1459.76 1303.01 1465.78 1300.63 1469.86 1295.86C1473.94 1291.1 1475.99 1284.74 1475.99 1276.92V1265.57C1467.25 1274.99 1456.36 1279.75 1443.2 1279.75C1426.52 1279.75 1412.68 1273.97 1401.79 1262.39C1390.9 1250.82 1385.45 1236.53 1385.45 1219.4C1385.45 1201.36 1390.9 1186.84 1401.79 1175.83C1412.68 1164.83 1426.52 1159.27 1443.43 1159.27C1456.59 1159.27 1467.48 1164.03 1476.21 1173.45V1162.56ZM1449.89 1246.63H1449.78C1457.95 1246.63 1464.53 1244.13 1469.52 1239.14C1474.51 1234.15 1477.01 1227.68 1477.01 1219.62C1477.01 1211.57 1474.51 1205.1 1469.52 1200.11C1464.53 1195.12 1457.95 1192.62 1449.78 1192.62C1441.61 1192.62 1434.92 1195.12 1429.81 1200.11C1424.71 1205.1 1422.21 1211.57 1422.21 1219.62C1422.21 1227.68 1424.82 1234.15 1429.93 1239.14C1435.03 1244.13 1441.72 1246.63 1449.89 1246.63ZM1592.33 1284.29L1592.22 1284.4C1572.82 1284.4 1557.17 1278.62 1545.14 1267.05C1533.11 1255.47 1527.1 1240.5 1527.1 1222.01C1527.1 1203.85 1532.89 1188.88 1544.46 1177.08C1556.03 1165.28 1571.12 1159.38 1589.84 1159.38C1608.9 1159.38 1623.99 1165.17 1635.1 1176.74C1646.22 1188.31 1651.78 1202.95 1651.78 1220.65C1651.78 1225.3 1651.44 1229.38 1650.87 1232.9H1563.29C1566.13 1246.51 1576 1253.32 1592.9 1253.32C1604.25 1253.32 1612.19 1249.35 1616.61 1241.29L1650.08 1251.05C1646.34 1259.56 1639.42 1267.27 1629.21 1274.08C1618.99 1280.89 1606.74 1284.29 1592.33 1284.29ZM1563.41 1210.66H1615.59C1615.02 1205.1 1612.41 1200.34 1607.65 1196.37C1602.89 1192.4 1596.87 1190.47 1589.61 1190.47C1582.35 1190.47 1576.34 1192.51 1571.69 1196.48C1567.04 1200.45 1564.31 1205.22 1563.41 1210.66Z" fill="#2AC558"/>
<line x1="418" y1="1367" x2="1653" y2="1367" stroke="#F7F8FA" stroke-width="1.99516"/>
<path d="M425.527 1444.64H419.632L436.681 1398.21H442.485L459.533 1444.64H453.639L439.764 1405.55H439.401L425.527 1444.64ZM427.703 1426.5H451.462V1431.49H427.703V1426.5ZM466.765 1398.21H473.476L489.255 1436.75H489.799L505.578 1398.21H512.289V1444.64H507.029V1409.36H506.576L492.066 1444.64H486.988L472.478 1409.36H472.025V1444.64H466.765V1398.21ZM523.562 1444.64V1398.21H551.402V1403.2H529.184V1418.88H549.316V1423.87H529.184V1444.64H523.562ZM566.654 1398.21V1444.64H561.031V1398.21H566.654ZM597.152 1418.93V1423.92H576.839V1418.93H597.152ZM607.291 1444.64V1398.21H622.98C626.607 1398.21 629.585 1398.83 631.912 1400.07C634.24 1401.29 635.963 1402.98 637.081 1405.12C638.199 1407.27 638.759 1409.71 638.759 1412.45C638.759 1415.18 638.199 1417.61 637.081 1419.72C635.963 1421.84 634.247 1423.5 631.935 1424.71C629.622 1425.9 626.668 1426.5 623.07 1426.5H610.375V1421.42H622.889C625.368 1421.42 627.363 1421.06 628.874 1420.33C630.401 1419.61 631.504 1418.58 632.184 1417.25C632.879 1415.91 633.227 1414.3 633.227 1412.45C633.227 1410.59 632.879 1408.96 632.184 1407.57C631.489 1406.18 630.378 1405.11 628.851 1404.35C627.325 1403.58 625.307 1403.2 622.798 1403.2H612.914V1444.64H607.291ZM629.146 1423.78L640.572 1444.64H634.043L622.798 1423.78H629.146ZM661.628 1445.36C658.273 1445.36 655.378 1444.62 652.945 1443.14C650.527 1441.65 648.66 1439.56 647.345 1436.88C646.046 1434.19 645.396 1431.07 645.396 1427.5C645.396 1423.93 646.046 1420.79 647.345 1418.07C648.66 1415.33 650.489 1413.2 652.832 1411.67C655.189 1410.13 657.94 1409.36 661.084 1409.36C662.898 1409.36 664.689 1409.66 666.457 1410.27C668.225 1410.87 669.835 1411.86 671.286 1413.22C672.737 1414.56 673.893 1416.34 674.755 1418.57C675.616 1420.79 676.047 1423.52 676.047 1426.77V1429.04H649.204V1424.42H670.606C670.606 1422.45 670.213 1420.7 669.427 1419.16C668.656 1417.61 667.553 1416.4 666.117 1415.51C664.696 1414.61 663.019 1414.17 661.084 1414.17C658.953 1414.17 657.109 1414.7 655.552 1415.76C654.011 1416.8 652.824 1418.16 651.993 1419.84C651.162 1421.51 650.746 1423.31 650.746 1425.23V1428.32C650.746 1430.94 651.199 1433.17 652.106 1435C653.028 1436.82 654.305 1438.2 655.938 1439.15C657.57 1440.09 659.467 1440.56 661.628 1440.56C663.034 1440.56 664.303 1440.36 665.437 1439.97C666.585 1439.56 667.575 1438.96 668.407 1438.15C669.238 1437.34 669.88 1436.33 670.334 1435.12L675.503 1436.57C674.959 1438.32 674.044 1439.86 672.76 1441.19C671.475 1442.51 669.888 1443.53 667.999 1444.28C666.109 1445 663.986 1445.36 661.628 1445.36ZM698.242 1458.42C695.657 1458.42 693.435 1458.09 691.576 1457.42C689.717 1456.77 688.168 1455.91 686.929 1454.84C685.705 1453.78 684.73 1452.65 684.004 1451.44L688.266 1448.45C688.75 1449.08 689.362 1449.81 690.103 1450.62C690.843 1451.45 691.856 1452.17 693.141 1452.78C694.441 1453.4 696.141 1453.71 698.242 1453.71C701.053 1453.71 703.373 1453.03 705.202 1451.67C707.03 1450.31 707.945 1448.17 707.945 1445.27V1438.2H707.491C707.098 1438.83 706.539 1439.62 705.814 1440.56C705.103 1441.48 704.076 1442.3 702.731 1443.03C701.401 1443.74 699.602 1444.09 697.335 1444.09C694.524 1444.09 692 1443.43 689.763 1442.1C687.541 1440.77 685.78 1438.83 684.48 1436.3C683.196 1433.76 682.553 1430.67 682.553 1427.05C682.553 1423.48 683.181 1420.37 684.435 1417.73C685.69 1415.07 687.435 1413.01 689.672 1411.56C691.909 1410.1 694.493 1409.36 697.426 1409.36C699.693 1409.36 701.491 1409.74 702.821 1410.5C704.166 1411.24 705.194 1412.08 705.904 1413.03C706.63 1413.97 707.189 1414.74 707.582 1415.35H708.126V1409.82H713.295V1445.64C713.295 1448.63 712.615 1451.06 711.255 1452.94C709.91 1454.83 708.096 1456.21 705.814 1457.08C703.547 1457.98 701.023 1458.42 698.242 1458.42ZM698.06 1439.29C700.207 1439.29 702.02 1438.8 703.501 1437.81C704.983 1436.83 706.109 1435.42 706.879 1433.57C707.65 1431.73 708.036 1429.52 708.036 1426.95C708.036 1424.45 707.658 1422.23 706.902 1420.31C706.146 1418.39 705.028 1416.89 703.547 1415.8C702.066 1414.71 700.237 1414.17 698.06 1414.17C695.793 1414.17 693.904 1414.74 692.393 1415.89C690.896 1417.04 689.77 1418.58 689.015 1420.52C688.274 1422.45 687.904 1424.6 687.904 1426.95C687.904 1429.37 688.282 1431.51 689.037 1433.37C689.808 1435.21 690.942 1436.67 692.438 1437.72C693.949 1438.77 695.823 1439.29 698.06 1439.29ZM723.089 1444.64V1409.82H728.439V1444.64H723.089ZM725.81 1404.01C724.767 1404.01 723.867 1403.66 723.112 1402.95C722.371 1402.24 722.001 1401.38 722.001 1400.38C722.001 1399.39 722.371 1398.53 723.112 1397.82C723.867 1397.11 724.767 1396.76 725.81 1396.76C726.852 1396.76 727.744 1397.11 728.485 1397.82C729.24 1398.53 729.618 1399.39 729.618 1400.38C729.618 1401.38 729.24 1402.24 728.485 1402.95C727.744 1403.66 726.852 1404.01 725.81 1404.01ZM762.905 1417.61L758.099 1418.97C757.796 1418.17 757.351 1417.4 756.761 1416.64C756.187 1415.87 755.401 1415.23 754.403 1414.74C753.406 1414.24 752.129 1413.99 750.572 1413.99C748.441 1413.99 746.665 1414.48 745.244 1415.46C743.839 1416.43 743.136 1417.66 743.136 1419.16C743.136 1420.49 743.62 1421.54 744.587 1422.31C745.554 1423.08 747.066 1423.72 749.121 1424.23L754.29 1425.5C757.404 1426.26 759.724 1427.42 761.25 1428.97C762.777 1430.51 763.54 1432.5 763.54 1434.94C763.54 1436.93 762.965 1438.71 761.817 1440.29C760.683 1441.86 759.096 1443.1 757.056 1444C755.016 1444.91 752.643 1445.36 749.937 1445.36C746.385 1445.36 743.446 1444.59 741.118 1443.05C738.791 1441.51 737.317 1439.26 736.697 1436.3L741.776 1435.03C742.259 1436.9 743.174 1438.31 744.519 1439.24C745.879 1440.18 747.655 1440.65 749.847 1440.65C752.34 1440.65 754.32 1440.12 755.786 1439.06C757.267 1437.99 758.008 1436.7 758.008 1435.21C758.008 1434 757.585 1432.99 756.738 1432.17C755.892 1431.34 754.592 1430.72 752.839 1430.31L747.035 1428.95C743.846 1428.19 741.504 1427.02 740.007 1425.44C738.526 1423.83 737.786 1421.83 737.786 1419.43C737.786 1417.46 738.337 1415.73 739.441 1414.21C740.559 1412.7 742.078 1411.52 743.997 1410.65C745.932 1409.79 748.124 1409.36 750.572 1409.36C754.018 1409.36 756.723 1410.12 758.688 1411.63C760.668 1413.14 762.074 1415.14 762.905 1417.61ZM786.738 1409.82V1414.35H768.692V1409.82H786.738ZM773.951 1401.47H779.302V1434.66C779.302 1436.17 779.521 1437.31 779.959 1438.06C780.413 1438.8 780.987 1439.3 781.682 1439.56C782.393 1439.8 783.141 1439.92 783.927 1439.92C784.516 1439.92 785 1439.89 785.378 1439.83C785.755 1439.76 786.058 1439.7 786.284 1439.65L787.373 1444.46C787.01 1444.59 786.504 1444.73 785.854 1444.86C785.204 1445.02 784.38 1445.09 783.383 1445.09C781.871 1445.09 780.39 1444.77 778.939 1444.12C777.503 1443.47 776.309 1442.48 775.357 1441.15C774.42 1439.82 773.951 1438.14 773.951 1436.11V1401.47ZM809.012 1445.36C805.657 1445.36 802.762 1444.62 800.329 1443.14C797.911 1441.65 796.044 1439.56 794.729 1436.88C793.43 1434.19 792.78 1431.07 792.78 1427.5C792.78 1423.93 793.43 1420.79 794.729 1418.07C796.044 1415.33 797.873 1413.2 800.216 1411.67C802.574 1410.13 805.324 1409.36 808.468 1409.36C810.282 1409.36 812.073 1409.66 813.841 1410.27C815.609 1410.87 817.219 1411.86 818.67 1413.22C820.121 1414.56 821.277 1416.34 822.139 1418.57C823 1420.79 823.431 1423.52 823.431 1426.77V1429.04H796.588V1424.42H817.99C817.99 1422.45 817.597 1420.7 816.811 1419.16C816.04 1417.61 814.937 1416.4 813.501 1415.51C812.08 1414.61 810.403 1414.17 808.468 1414.17C806.337 1414.17 804.493 1414.7 802.936 1415.76C801.395 1416.8 800.208 1418.16 799.377 1419.84C798.546 1421.51 798.13 1423.31 798.13 1425.23V1428.32C798.13 1430.94 798.583 1433.17 799.49 1435C800.412 1436.82 801.689 1438.2 803.322 1439.15C804.954 1440.09 806.851 1440.56 809.012 1440.56C810.418 1440.56 811.687 1440.36 812.821 1439.97C813.97 1439.56 814.959 1438.96 815.791 1438.15C816.622 1437.34 817.264 1436.33 817.718 1435.12L822.887 1436.57C822.343 1438.32 821.428 1439.86 820.144 1441.19C818.859 1442.51 817.272 1443.53 815.383 1444.28C813.493 1445 811.37 1445.36 809.012 1445.36ZM831.57 1444.64V1409.82H836.739V1415.08H837.101C837.736 1413.35 838.885 1411.95 840.547 1410.88C842.21 1409.81 844.084 1409.27 846.17 1409.27C846.563 1409.27 847.054 1409.28 847.643 1409.29C848.233 1409.31 848.679 1409.33 848.981 1409.36V1414.8C848.8 1414.76 848.384 1414.69 847.734 1414.6C847.099 1414.49 846.427 1414.44 845.716 1414.44C844.024 1414.44 842.512 1414.8 841.182 1415.51C839.867 1416.2 838.824 1417.17 838.054 1418.41C837.298 1419.63 836.92 1421.03 836.92 1422.6V1444.64H831.57ZM868.864 1445.36C865.508 1445.36 862.614 1444.62 860.181 1443.14C857.762 1441.65 855.896 1439.56 854.581 1436.88C853.281 1434.19 852.631 1431.07 852.631 1427.5C852.631 1423.93 853.281 1420.79 854.581 1418.07C855.896 1415.33 857.725 1413.2 860.067 1411.67C862.425 1410.13 865.176 1409.36 868.319 1409.36C870.133 1409.36 871.924 1409.66 873.692 1410.27C875.461 1410.87 877.07 1411.86 878.521 1413.22C879.972 1414.56 881.129 1416.34 881.99 1418.57C882.852 1420.79 883.282 1423.52 883.282 1426.77V1429.04H856.44V1424.42H877.841C877.841 1422.45 877.448 1420.7 876.662 1419.16C875.892 1417.61 874.788 1416.4 873.352 1415.51C871.932 1414.61 870.254 1414.17 868.319 1414.17C866.188 1414.17 864.344 1414.7 862.788 1415.76C861.246 1416.8 860.06 1418.16 859.228 1419.84C858.397 1421.51 857.981 1423.31 857.981 1425.23V1428.32C857.981 1430.94 858.435 1433.17 859.342 1435C860.264 1436.82 861.541 1438.2 863.173 1439.15C864.805 1440.09 866.702 1440.56 868.864 1440.56C870.269 1440.56 871.539 1440.36 872.672 1439.97C873.821 1439.56 874.811 1438.96 875.642 1438.15C876.473 1437.34 877.116 1436.33 877.569 1435.12L882.738 1436.57C882.194 1438.32 881.28 1439.86 879.995 1441.19C878.71 1442.51 877.123 1443.53 875.234 1444.28C873.345 1445 871.221 1445.36 868.864 1445.36ZM904.57 1445.36C901.668 1445.36 899.107 1444.63 896.885 1443.16C894.663 1441.68 892.925 1439.6 891.671 1436.91C890.416 1434.2 889.789 1431.01 889.789 1427.32C889.789 1423.66 890.416 1420.49 891.671 1417.8C892.925 1415.11 894.671 1413.03 896.908 1411.56C899.144 1410.1 901.729 1409.36 904.661 1409.36C906.928 1409.36 908.719 1409.74 910.034 1410.5C911.364 1411.24 912.377 1412.08 913.072 1413.03C913.782 1413.97 914.334 1414.74 914.727 1415.35H915.18V1398.21H920.531V1444.64H915.362V1439.29H914.727C914.334 1439.92 913.775 1440.72 913.049 1441.69C912.324 1442.64 911.289 1443.5 909.943 1444.25C908.598 1444.99 906.807 1445.36 904.57 1445.36ZM905.296 1440.56C907.442 1440.56 909.256 1440 910.737 1438.88C912.218 1437.75 913.344 1436.18 914.115 1434.19C914.886 1432.18 915.271 1429.86 915.271 1427.23C915.271 1424.63 914.893 1422.35 914.137 1420.4C913.382 1418.44 912.263 1416.91 910.782 1415.82C909.301 1414.72 907.472 1414.17 905.296 1414.17C903.029 1414.17 901.139 1414.75 899.628 1415.91C898.132 1417.06 897.006 1418.63 896.25 1420.61C895.509 1422.57 895.139 1424.78 895.139 1427.23C895.139 1429.71 895.517 1431.96 896.273 1433.98C897.044 1435.99 898.177 1437.6 899.673 1438.79C901.185 1439.97 903.059 1440.56 905.296 1440.56ZM949.754 1398.21H956.464L972.243 1436.75H972.787L988.566 1398.21H995.277V1444.64H990.017V1409.36H989.564L975.054 1444.64H969.976L955.467 1409.36H955.013V1444.64H949.754V1398.21ZM1027.77 1430.4V1409.82H1033.12V1444.64H1027.77V1438.74H1027.41C1026.59 1440.51 1025.32 1442.02 1023.6 1443.26C1021.88 1444.48 1019.7 1445.09 1017.07 1445.09C1014.89 1445.09 1012.96 1444.62 1011.27 1443.66C1009.57 1442.7 1008.24 1441.25 1007.28 1439.31C1006.31 1437.36 1005.82 1434.9 1005.82 1431.94V1409.82H1011.17V1431.58C1011.17 1434.12 1011.89 1436.14 1013.31 1437.66C1014.74 1439.17 1016.57 1439.92 1018.79 1439.92C1020.12 1439.92 1021.48 1439.58 1022.85 1438.9C1024.24 1438.22 1025.4 1437.18 1026.34 1435.77C1027.29 1434.37 1027.77 1432.58 1027.77 1430.4ZM1058.06 1409.82V1414.35H1040.02V1409.82H1058.06ZM1045.28 1401.47H1050.63V1434.66C1050.63 1436.17 1050.85 1437.31 1051.29 1438.06C1051.74 1438.8 1052.31 1439.3 1053.01 1439.56C1053.72 1439.8 1054.47 1439.92 1055.25 1439.92C1055.84 1439.92 1056.33 1439.89 1056.7 1439.83C1057.08 1439.76 1057.38 1439.7 1057.61 1439.65L1058.7 1444.46C1058.34 1444.59 1057.83 1444.73 1057.18 1444.86C1056.53 1445.02 1055.71 1445.09 1054.71 1445.09C1053.2 1445.09 1051.72 1444.77 1050.27 1444.12C1048.83 1443.47 1047.64 1442.48 1046.68 1441.15C1045.75 1439.82 1045.28 1438.14 1045.28 1436.11V1401.47ZM1088.06 1430.4V1409.82H1093.41V1444.64H1088.06V1438.74H1087.7C1086.88 1440.51 1085.61 1442.02 1083.89 1443.26C1082.16 1444.48 1079.99 1445.09 1077.36 1445.09C1075.18 1445.09 1073.25 1444.62 1071.55 1443.66C1069.86 1442.7 1068.53 1441.25 1067.56 1439.31C1066.6 1437.36 1066.11 1434.9 1066.11 1431.94V1409.82H1071.46V1431.58C1071.46 1434.12 1072.17 1436.14 1073.59 1437.66C1075.03 1439.17 1076.86 1439.92 1079.08 1439.92C1080.41 1439.92 1081.76 1439.58 1083.14 1438.9C1084.53 1438.22 1085.69 1437.18 1086.63 1435.77C1087.58 1434.37 1088.06 1432.58 1088.06 1430.4ZM1113.46 1445.45C1111.25 1445.45 1109.25 1445.04 1107.45 1444.21C1105.65 1443.36 1104.22 1442.14 1103.16 1440.56C1102.1 1438.96 1101.58 1437.02 1101.58 1434.75C1101.58 1432.76 1101.97 1431.14 1102.75 1429.9C1103.54 1428.65 1104.59 1427.67 1105.91 1426.95C1107.22 1426.24 1108.67 1425.72 1110.26 1425.37C1111.86 1425.01 1113.47 1424.72 1115.09 1424.51C1117.2 1424.23 1118.92 1424.03 1120.23 1423.89C1121.56 1423.74 1122.53 1423.49 1123.14 1423.15C1123.76 1422.8 1124.07 1422.19 1124.07 1421.33V1421.15C1124.07 1418.91 1123.45 1417.18 1122.23 1415.94C1121.02 1414.7 1119.18 1414.08 1116.72 1414.08C1114.17 1414.08 1112.16 1414.64 1110.71 1415.76C1109.26 1416.87 1108.24 1418.07 1107.65 1419.34L1102.57 1417.52C1103.48 1415.41 1104.69 1413.76 1106.2 1412.58C1107.73 1411.39 1109.39 1410.56 1111.19 1410.09C1113 1409.6 1114.79 1409.36 1116.54 1409.36C1117.66 1409.36 1118.94 1409.5 1120.39 1409.77C1121.86 1410.03 1123.27 1410.56 1124.63 1411.38C1126.01 1412.2 1127.15 1413.43 1128.06 1415.08C1128.96 1416.72 1129.42 1418.93 1129.42 1421.7V1444.64H1124.07V1439.92H1123.79C1123.43 1440.68 1122.83 1441.49 1121.98 1442.35C1121.13 1443.21 1120.01 1443.94 1118.6 1444.55C1117.2 1445.15 1115.48 1445.45 1113.46 1445.45ZM1114.27 1440.65C1116.39 1440.65 1118.17 1440.23 1119.62 1439.4C1121.09 1438.57 1122.19 1437.5 1122.93 1436.18C1123.69 1434.87 1124.07 1433.48 1124.07 1432.03V1427.14C1123.84 1427.41 1123.34 1427.66 1122.57 1427.88C1121.81 1428.1 1120.94 1428.28 1119.94 1428.45C1118.96 1428.6 1118 1428.74 1117.06 1428.86C1116.14 1428.96 1115.39 1429.06 1114.82 1429.13C1113.42 1429.31 1112.13 1429.61 1110.92 1430.02C1109.72 1430.41 1108.75 1431.01 1108.01 1431.81C1107.29 1432.59 1106.93 1433.67 1106.93 1435.03C1106.93 1436.88 1107.61 1438.29 1108.99 1439.24C1110.38 1440.18 1112.14 1440.65 1114.27 1440.65ZM1144.53 1398.21V1444.64H1139.18V1398.21H1144.53ZM1173.01 1444.64V1398.21H1200.85V1403.2H1178.63V1418.88H1198.77V1423.87H1178.63V1444.64H1173.01ZM1229.52 1430.4V1409.82H1234.87V1444.64H1229.52V1438.74H1229.16C1228.34 1440.51 1227.07 1442.02 1225.35 1443.26C1223.62 1444.48 1221.45 1445.09 1218.82 1445.09C1216.64 1445.09 1214.71 1444.62 1213.01 1443.66C1211.32 1442.7 1209.99 1441.25 1209.02 1439.31C1208.06 1437.36 1207.57 1434.9 1207.57 1431.94V1409.82H1212.92V1431.58C1212.92 1434.12 1213.63 1436.14 1215.06 1437.66C1216.49 1439.17 1218.32 1439.92 1220.54 1439.92C1221.87 1439.92 1223.22 1439.58 1224.6 1438.9C1225.99 1438.22 1227.15 1437.18 1228.09 1435.77C1229.04 1434.37 1229.52 1432.58 1229.52 1430.4ZM1250.02 1423.69V1444.64H1244.67V1409.82H1249.84V1415.26H1250.29C1251.11 1413.49 1252.35 1412.07 1254.01 1410.99C1255.67 1409.91 1257.82 1409.36 1260.45 1409.36C1262.81 1409.36 1264.87 1409.85 1266.64 1410.81C1268.41 1411.77 1269.78 1413.22 1270.76 1415.17C1271.75 1417.1 1272.24 1419.55 1272.24 1422.51V1444.64H1266.89V1422.87C1266.89 1420.14 1266.18 1418.01 1264.76 1416.48C1263.33 1414.94 1261.39 1414.17 1258.91 1414.17C1257.2 1414.17 1255.67 1414.54 1254.33 1415.28C1253 1416.02 1251.95 1417.1 1251.18 1418.52C1250.4 1419.94 1250.02 1421.66 1250.02 1423.69ZM1295.16 1445.36C1292.26 1445.36 1289.7 1444.63 1287.48 1443.16C1285.26 1441.68 1283.52 1439.6 1282.26 1436.91C1281.01 1434.2 1280.38 1431.01 1280.38 1427.32C1280.38 1423.66 1281.01 1420.49 1282.26 1417.8C1283.52 1415.11 1285.26 1413.03 1287.5 1411.56C1289.74 1410.1 1292.32 1409.36 1295.25 1409.36C1297.52 1409.36 1299.31 1409.74 1300.63 1410.5C1301.96 1411.24 1302.97 1412.08 1303.66 1413.03C1304.38 1413.97 1304.93 1414.74 1305.32 1415.35H1305.77V1398.21H1311.12V1444.64H1305.95V1439.29H1305.32C1304.93 1439.92 1304.37 1440.72 1303.64 1441.69C1302.92 1442.64 1301.88 1443.5 1300.54 1444.25C1299.19 1444.99 1297.4 1445.36 1295.16 1445.36ZM1295.89 1440.56C1298.03 1440.56 1299.85 1440 1301.33 1438.88C1302.81 1437.75 1303.94 1436.18 1304.71 1434.19C1305.48 1432.18 1305.86 1429.86 1305.86 1427.23C1305.86 1424.63 1305.49 1422.35 1304.73 1420.4C1303.97 1418.44 1302.86 1416.91 1301.37 1415.82C1299.89 1414.72 1298.06 1414.17 1295.89 1414.17C1293.62 1414.17 1291.73 1414.75 1290.22 1415.91C1288.72 1417.06 1287.6 1418.63 1286.84 1420.61C1286.1 1422.57 1285.73 1424.78 1285.73 1427.23C1285.73 1429.71 1286.11 1431.96 1286.87 1433.98C1287.64 1435.99 1288.77 1437.6 1290.27 1438.79C1291.78 1439.97 1293.65 1440.56 1295.89 1440.56ZM1354.67 1444.64H1340.35V1398.21H1355.31C1359.81 1398.21 1363.67 1399.14 1366.87 1401C1370.08 1402.84 1372.53 1405.49 1374.24 1408.95C1375.95 1412.4 1376.8 1416.53 1376.8 1421.33C1376.8 1426.17 1375.94 1430.33 1374.22 1433.82C1372.49 1437.3 1369.98 1439.98 1366.69 1441.85C1363.4 1443.71 1359.39 1444.64 1354.67 1444.64ZM1345.97 1439.65H1354.31C1358.15 1439.65 1361.33 1438.91 1363.86 1437.43C1366.38 1435.95 1368.26 1433.84 1369.5 1431.1C1370.74 1428.37 1371.36 1425.11 1371.36 1421.33C1371.36 1417.58 1370.75 1414.36 1369.52 1411.65C1368.3 1408.93 1366.47 1406.85 1364.04 1405.39C1361.6 1403.93 1358.57 1403.2 1354.95 1403.2H1345.97V1439.65ZM1385.51 1444.64V1409.82H1390.86V1444.64H1385.51ZM1388.23 1404.01C1387.18 1404.01 1386.29 1403.66 1385.53 1402.95C1384.79 1402.24 1384.42 1401.38 1384.42 1400.38C1384.42 1399.39 1384.79 1398.53 1385.53 1397.82C1386.29 1397.11 1387.18 1396.76 1388.23 1396.76C1389.27 1396.76 1390.16 1397.11 1390.9 1397.82C1391.66 1398.53 1392.04 1399.39 1392.04 1400.38C1392.04 1401.38 1391.66 1402.24 1390.9 1402.95C1390.16 1403.66 1389.27 1404.01 1388.23 1404.01ZM1425.32 1417.61L1420.52 1418.97C1420.21 1418.17 1419.77 1417.4 1419.18 1416.64C1418.6 1415.87 1417.82 1415.23 1416.82 1414.74C1415.82 1414.24 1414.55 1413.99 1412.99 1413.99C1410.86 1413.99 1409.08 1414.48 1407.66 1415.46C1406.26 1416.43 1405.55 1417.66 1405.55 1419.16C1405.55 1420.49 1406.04 1421.54 1407 1422.31C1407.97 1423.08 1409.48 1423.72 1411.54 1424.23L1416.71 1425.5C1419.82 1426.26 1422.14 1427.42 1423.67 1428.97C1425.19 1430.51 1425.96 1432.5 1425.96 1434.94C1425.96 1436.93 1425.38 1438.71 1424.23 1440.29C1423.1 1441.86 1421.51 1443.1 1419.47 1444C1417.43 1444.91 1415.06 1445.36 1412.36 1445.36C1408.8 1445.36 1405.86 1444.59 1403.54 1443.05C1401.21 1441.51 1399.73 1439.26 1399.12 1436.3L1404.19 1435.03C1404.68 1436.9 1405.59 1438.31 1406.94 1439.24C1408.3 1440.18 1410.07 1440.65 1412.26 1440.65C1414.76 1440.65 1416.74 1440.12 1418.2 1439.06C1419.69 1437.99 1420.43 1436.7 1420.43 1435.21C1420.43 1434 1420 1432.99 1419.16 1432.17C1418.31 1431.34 1417.01 1430.72 1415.26 1430.31L1409.45 1428.95C1406.26 1428.19 1403.92 1427.02 1402.43 1425.44C1400.94 1423.83 1400.2 1421.83 1400.2 1419.43C1400.2 1417.46 1400.76 1415.73 1401.86 1414.21C1402.98 1412.7 1404.5 1411.52 1406.42 1410.65C1408.35 1409.79 1410.54 1409.36 1412.99 1409.36C1416.44 1409.36 1419.14 1410.12 1421.11 1411.63C1423.09 1413.14 1424.49 1415.14 1425.32 1417.61ZM1449.16 1409.82V1414.35H1431.11V1409.82H1449.16ZM1436.37 1401.47H1441.72V1434.66C1441.72 1436.17 1441.94 1437.31 1442.38 1438.06C1442.83 1438.8 1443.4 1439.3 1444.1 1439.56C1444.81 1439.8 1445.56 1439.92 1446.34 1439.92C1446.93 1439.92 1447.42 1439.89 1447.8 1439.83C1448.17 1439.76 1448.48 1439.7 1448.7 1439.65L1449.79 1444.46C1449.43 1444.59 1448.92 1444.73 1448.27 1444.86C1447.62 1445.02 1446.8 1445.09 1445.8 1445.09C1444.29 1445.09 1442.81 1444.77 1441.36 1444.12C1439.92 1443.47 1438.73 1442.48 1437.77 1441.15C1436.84 1439.82 1436.37 1438.14 1436.37 1436.11V1401.47ZM1457.2 1444.64V1409.82H1462.37V1415.08H1462.74C1463.37 1413.35 1464.52 1411.95 1466.18 1410.88C1467.84 1409.81 1469.72 1409.27 1471.8 1409.27C1472.2 1409.27 1472.69 1409.28 1473.28 1409.29C1473.87 1409.31 1474.31 1409.33 1474.62 1409.36V1414.8C1474.43 1414.76 1474.02 1414.69 1473.37 1414.6C1472.73 1414.49 1472.06 1414.44 1471.35 1414.44C1469.66 1414.44 1468.15 1414.8 1466.82 1415.51C1465.5 1416.2 1464.46 1417.17 1463.69 1418.41C1462.93 1419.63 1462.55 1421.03 1462.55 1422.6V1444.64H1457.2ZM1480.96 1444.64V1409.82H1486.31V1444.64H1480.96ZM1483.68 1404.01C1482.64 1404.01 1481.74 1403.66 1480.98 1402.95C1480.24 1402.24 1479.87 1401.38 1479.87 1400.38C1479.87 1399.39 1480.24 1398.53 1480.98 1397.82C1481.74 1397.11 1482.64 1396.76 1483.68 1396.76C1484.72 1396.76 1485.61 1397.11 1486.35 1397.82C1487.11 1398.53 1487.49 1399.39 1487.49 1400.38C1487.49 1401.38 1487.11 1402.24 1486.35 1402.95C1485.61 1403.66 1484.72 1404.01 1483.68 1404.01ZM1496.83 1444.64V1398.21H1502.18V1415.35H1502.64C1503.03 1414.74 1503.57 1413.97 1504.27 1413.03C1504.98 1412.08 1505.99 1411.24 1507.31 1410.5C1508.64 1409.74 1510.44 1409.36 1512.7 1409.36C1515.63 1409.36 1518.22 1410.1 1520.46 1411.56C1522.69 1413.03 1524.44 1415.11 1525.69 1417.8C1526.95 1420.49 1527.57 1423.66 1527.57 1427.32C1527.57 1431.01 1526.95 1434.2 1525.69 1436.91C1524.44 1439.6 1522.7 1441.68 1520.48 1443.16C1518.26 1444.63 1515.69 1445.36 1512.79 1445.36C1510.56 1445.36 1508.77 1444.99 1507.42 1444.25C1506.07 1443.5 1505.04 1442.64 1504.31 1441.69C1503.59 1440.72 1503.03 1439.92 1502.64 1439.29H1502V1444.64H1496.83ZM1502.09 1427.23C1502.09 1429.86 1502.48 1432.18 1503.25 1434.19C1504.02 1436.18 1505.15 1437.75 1506.63 1438.88C1508.11 1440 1509.92 1440.56 1512.07 1440.56C1514.3 1440.56 1516.17 1439.97 1517.67 1438.79C1519.18 1437.6 1520.31 1435.99 1521.07 1433.98C1521.84 1431.96 1522.22 1429.71 1522.22 1427.23C1522.22 1424.78 1521.85 1422.57 1521.09 1420.61C1520.35 1418.63 1519.22 1417.06 1517.71 1415.91C1516.22 1414.75 1514.33 1414.17 1512.07 1414.17C1509.89 1414.17 1508.06 1414.72 1506.58 1415.82C1505.1 1416.91 1503.98 1418.44 1503.23 1420.4C1502.47 1422.35 1502.09 1424.63 1502.09 1427.23ZM1557.7 1430.4V1409.82H1563.05V1444.64H1557.7V1438.74H1557.34C1556.53 1440.51 1555.26 1442.02 1553.53 1443.26C1551.81 1444.48 1549.63 1445.09 1547 1445.09C1544.83 1445.09 1542.89 1444.62 1541.2 1443.66C1539.51 1442.7 1538.18 1441.25 1537.21 1439.31C1536.24 1437.36 1535.76 1434.9 1535.76 1431.94V1409.82H1541.11V1431.58C1541.11 1434.12 1541.82 1436.14 1543.24 1437.66C1544.68 1439.17 1546.5 1439.92 1548.73 1439.92C1550.06 1439.92 1551.41 1439.58 1552.78 1438.9C1554.18 1438.22 1555.34 1437.18 1556.28 1435.77C1557.23 1434.37 1557.7 1432.58 1557.7 1430.4ZM1588 1409.82V1414.35H1569.95V1409.82H1588ZM1575.21 1401.47H1580.56V1434.66C1580.56 1436.17 1580.78 1437.31 1581.22 1438.06C1581.67 1438.8 1582.25 1439.3 1582.94 1439.56C1583.65 1439.8 1584.4 1439.92 1585.19 1439.92C1585.78 1439.92 1586.26 1439.89 1586.64 1439.83C1587.02 1439.76 1587.32 1439.7 1587.55 1439.65L1588.63 1444.46C1588.27 1444.59 1587.76 1444.73 1587.11 1444.86C1586.46 1445.02 1585.64 1445.09 1584.64 1445.09C1583.13 1445.09 1581.65 1444.77 1580.2 1444.12C1578.76 1443.47 1577.57 1442.48 1576.62 1441.15C1575.68 1439.82 1575.21 1438.14 1575.21 1436.11V1401.47ZM1609.82 1445.36C1606.68 1445.36 1603.92 1444.62 1601.54 1443.12C1599.19 1441.62 1597.34 1439.53 1596.01 1436.84C1594.7 1434.15 1594.04 1431.01 1594.04 1427.41C1594.04 1423.78 1594.7 1420.61 1596.01 1417.91C1597.34 1415.2 1599.19 1413.1 1601.54 1411.61C1603.92 1410.11 1606.68 1409.36 1609.82 1409.36C1612.96 1409.36 1615.71 1410.11 1618.07 1411.61C1620.44 1413.1 1622.29 1415.2 1623.6 1417.91C1624.93 1420.61 1625.6 1423.78 1625.6 1427.41C1625.6 1431.01 1624.93 1434.15 1623.6 1436.84C1622.29 1439.53 1620.44 1441.62 1618.07 1443.12C1615.71 1444.62 1612.96 1445.36 1609.82 1445.36ZM1609.82 1440.56C1612.21 1440.56 1614.17 1439.95 1615.71 1438.72C1617.26 1437.5 1618.4 1435.89 1619.14 1433.89C1619.88 1431.9 1620.25 1429.74 1620.25 1427.41C1620.25 1425.08 1619.88 1422.91 1619.14 1420.9C1618.4 1418.89 1617.26 1417.27 1615.71 1416.03C1614.17 1414.79 1612.21 1414.17 1609.82 1414.17C1607.43 1414.17 1605.47 1414.79 1603.92 1416.03C1602.38 1417.27 1601.24 1418.89 1600.5 1420.9C1599.76 1422.91 1599.39 1425.08 1599.39 1427.41C1599.39 1429.74 1599.76 1431.9 1600.5 1433.89C1601.24 1435.89 1602.38 1437.5 1603.92 1438.72C1605.47 1439.95 1607.43 1440.56 1609.82 1440.56ZM1633.77 1444.64V1409.82H1638.93V1415.08H1639.3C1639.93 1413.35 1641.08 1411.95 1642.74 1410.88C1644.41 1409.81 1646.28 1409.27 1648.37 1409.27C1648.76 1409.27 1649.25 1409.28 1649.84 1409.29C1650.43 1409.31 1650.87 1409.33 1651.18 1409.36V1414.8C1651 1414.76 1650.58 1414.69 1649.93 1414.6C1649.3 1414.49 1648.62 1414.44 1647.91 1414.44C1646.22 1414.44 1644.71 1414.8 1643.38 1415.51C1642.06 1416.2 1641.02 1417.17 1640.25 1418.41C1639.49 1419.63 1639.12 1421.03 1639.12 1422.6V1444.64H1633.77Z" fill="#F7F8FA"/>
</svg>
