<svg width="1200" height="220" viewBox="0 0 1200 220" fill="none" xmlns="http://www.w3.org/2000/svg">
  <defs>
    <linearGradient id="lineGrad" x1="0" y1="0" x2="1" y2="0">
      <stop offset="0%" stop-color="#6CCB7A"/>
      <stop offset="100%" stop-color="#A5D6A7"/>
    </linearGradient>
  </defs>
  <rect width="1200" height="220" fill="transparent"/>
  <g opacity="0.2" stroke="#A5D6A7" stroke-width="1">
    <line x1="0" y1="40" x2="1200" y2="40"/>
    <line x1="0" y1="80" x2="1200" y2="80"/>
    <line x1="0" y1="120" x2="1200" y2="120"/>
    <line x1="0" y1="160" x2="1200" y2="160"/>
    <line x1="0" y1="200" x2="1200" y2="200"/>
  </g>
  <path d="M20 180 C 140 175, 180 155, 260 148 C 340 140, 430 145, 500 126 C 580 105, 650 102, 730 92 C 810 82, 900 62, 980 54 C 1060 45, 1130 36, 1180 24" stroke="url(#lineGrad)" stroke-width="6" stroke-linecap="round" stroke-linejoin="round"/>
  <g fill="#A5D6A7">
    <circle cx="260" cy="148" r="5"/>
    <circle cx="500" cy="126" r="5"/>
    <circle cx="730" cy="92" r="5"/>
    <circle cx="980" cy="54" r="5"/>
    <circle cx="1180" cy="24" r="5"/>
  </g>
</svg>
