<svg width="2065" height="2065" viewBox="0 0 2065 2065" fill="none" xmlns="http://www.w3.org/2000/svg">
<rect x="488.977" y="886.934" width="83.2336" height="83.1465" fill="#2AC558"/>
<path d="M572.201 866.147H551.392V866.122H468.226V955.307H468.158V970.079H384.924V955.307H384.855V857.826H384.923V783H572.201V866.147Z" fill="#071F45"/>
<path d="M364.234 824.573H364.21V990.866H364.234V990.886H447.421V990.935H530.699V990.866H572.315V1074.01H439.365V1074.01H364.234V1074.01H281V783H364.234V824.573Z" fill="#071F45"/>
<path d="M688.377 912.351H758.169V944.555H653.17V796.065H688.377V912.351ZM785.46 823.92L785.253 823.816C779.869 823.816 775.313 821.953 771.481 818.225C767.65 814.497 765.786 809.941 765.786 804.556C765.786 799.275 767.753 794.823 771.585 791.198C775.416 787.574 779.972 785.71 785.357 785.71C790.741 785.71 795.298 787.574 799.129 791.302C802.96 795.03 804.928 799.482 804.928 804.66C804.928 810.044 803.064 814.601 799.232 818.328C795.401 822.056 790.845 823.92 785.46 823.92ZM767.857 944.451V836.346H801.718V944.451H767.857ZM887.411 833.446V833.654C901.39 833.654 911.952 838.003 918.993 846.597C926.034 855.192 929.555 866.893 929.555 881.7V944.658H895.695V888.431C895.695 872.795 889.275 864.925 876.331 864.925C869.807 864.925 864.733 867.307 861.006 872.07C857.278 876.834 855.414 883.357 855.414 891.745V944.555H821.45V836.449H855.414V847.633C863.594 838.21 874.26 833.446 887.411 833.446ZM1000.65 947.558L1000.54 947.661C982.837 947.661 968.548 942.38 957.571 931.818C946.595 921.256 941.107 907.588 941.107 890.709C941.107 874.141 946.388 860.473 956.95 849.704C967.512 838.935 981.284 833.55 998.37 833.55C1015.77 833.55 1029.54 838.831 1039.69 849.393C1049.83 859.955 1054.91 873.313 1054.91 889.467C1054.91 893.712 1054.6 897.44 1054.08 900.65H974.139C976.728 913.076 985.737 919.289 1001.17 919.289C1011.52 919.289 1018.77 915.664 1022.81 908.312L1053.35 917.218C1049.94 924.984 1043.62 932.025 1034.3 938.238C1024.98 944.451 1013.8 947.558 1000.65 947.558ZM974.243 880.354H1021.88C1021.36 875.28 1018.98 870.931 1014.63 867.307C1010.28 863.683 1004.79 861.922 998.163 861.922C991.536 861.922 986.047 863.786 981.802 867.411C977.556 871.035 975.071 875.384 974.243 880.354ZM1113.99 947.558H1113.88C1099.18 947.558 1086.76 942.07 1076.61 931.197C1066.46 920.324 1061.39 906.759 1061.39 890.502C1061.39 874.245 1066.46 860.68 1076.61 849.807C1086.76 838.935 1099.18 833.446 1113.88 833.446C1126.73 833.446 1137.08 837.796 1145.05 846.39V836.449H1179.02V944.555H1145.05V934.614C1136.87 943.209 1126.52 947.558 1113.99 947.558ZM1120.1 917.425L1119.99 917.528C1127.55 917.528 1133.77 915.043 1138.63 909.969C1143.5 904.895 1145.99 898.372 1145.99 890.399C1145.99 882.425 1143.5 876.005 1138.63 871.035C1133.77 866.064 1127.55 863.579 1120.1 863.579C1112.75 863.579 1106.74 866.064 1101.98 871.035C1097.21 876.005 1094.83 882.425 1094.83 890.399C1094.83 898.475 1097.21 904.999 1101.98 909.969C1106.74 914.94 1112.75 917.425 1120.1 917.425ZM1198.13 944.555V789.749H1232.09V944.555H1198.13Z" fill="#071F45"/>
<path d="M1396.91 827.958H1319.56V853.742H1386.14V884.496H1319.56V912.765H1396.71V944.555H1285.18V796.065H1396.91V827.958ZM1487.06 789.749H1520.92V944.555H1486.96V934.614C1478.78 943.209 1468.42 947.558 1455.89 947.558C1441.19 947.558 1428.76 942.07 1418.61 931.197C1408.47 920.324 1403.39 906.759 1403.39 890.502C1403.39 874.245 1408.47 860.68 1418.61 849.807C1428.76 838.935 1441.19 833.446 1455.89 833.446C1468.73 833.446 1479.09 837.796 1487.06 846.39V789.749ZM1462 917.425L1461.9 917.528C1469.46 917.528 1475.67 915.043 1480.54 909.969C1485.4 904.895 1487.89 898.372 1487.89 890.399C1487.89 882.425 1485.4 876.005 1480.54 871.035C1475.67 866.064 1469.46 863.579 1462 863.579C1454.65 863.579 1448.64 866.064 1443.88 871.035C1439.12 876.005 1436.73 882.425 1436.73 890.399C1436.73 898.475 1439.12 904.999 1443.88 909.969C1448.64 914.94 1454.65 917.425 1462 917.425ZM1616.35 836.449L1650.31 836.657V940.723C1650.31 955.945 1645.13 968.371 1634.78 977.898C1624.42 987.424 1610.65 992.187 1593.36 992.187C1568.82 992.187 1551.32 982.764 1540.96 963.918L1570.27 953.356C1575.13 960.915 1583.11 964.643 1594.19 964.643C1601.33 964.643 1606.82 962.469 1610.55 958.12C1614.28 953.771 1616.14 947.972 1616.14 940.827V930.472C1608.17 939.067 1598.23 943.416 1586.21 943.416C1570.99 943.416 1558.36 938.135 1548.42 927.573C1538.48 917.011 1533.51 903.963 1533.51 888.328C1533.51 871.863 1538.48 858.609 1548.42 848.565C1558.36 838.52 1570.99 833.446 1586.42 833.446C1598.43 833.446 1608.37 837.796 1616.35 846.39V836.449ZM1592.32 913.179H1592.22C1599.68 913.179 1605.68 910.901 1610.24 906.345C1614.79 901.789 1617.07 895.887 1617.07 888.535C1617.07 881.183 1614.79 875.28 1610.24 870.724C1605.68 866.168 1599.68 863.89 1592.22 863.89C1584.76 863.89 1578.65 866.168 1574 870.724C1569.34 875.28 1567.06 881.183 1567.06 888.535C1567.06 895.887 1569.44 901.789 1574.1 906.345C1578.76 910.901 1584.87 913.179 1592.32 913.179ZM1722.34 947.558L1722.23 947.661C1704.52 947.661 1690.24 942.38 1679.26 931.818C1668.28 921.256 1662.79 907.588 1662.79 890.709C1662.79 874.141 1668.08 860.473 1678.64 849.704C1689.2 838.935 1702.97 833.55 1720.06 833.55C1737.45 833.55 1751.23 838.831 1761.37 849.393C1771.52 859.955 1776.6 873.313 1776.6 889.467C1776.6 893.712 1776.28 897.44 1775.77 900.65H1695.83C1698.42 913.076 1707.42 919.289 1722.85 919.289C1733.21 919.289 1740.46 915.664 1744.49 908.312L1775.04 917.218C1771.62 924.984 1765.31 932.025 1755.99 938.238C1746.67 944.451 1735.49 947.558 1722.34 947.558ZM1695.93 880.354H1743.56C1743.05 875.28 1740.66 870.931 1736.31 867.307C1731.97 863.683 1726.48 861.922 1719.85 861.922C1713.22 861.922 1707.73 863.786 1703.49 867.411C1699.24 871.035 1696.76 875.384 1695.93 880.354Z" fill="#2AC558"/>
<path d="M653.305 1060.46V1011.09H660.754V1054.05H683.124V1060.46H653.305ZM707.001 1061.21C703.353 1061.21 700.211 1060.43 697.576 1058.87C694.956 1057.29 692.931 1055.08 691.501 1052.24C690.087 1049.38 689.38 1046.03 689.38 1042.19C689.38 1038.39 690.087 1035.05 691.501 1032.16C692.931 1029.26 694.924 1027.01 697.479 1025.38C700.05 1023.76 703.056 1022.95 706.495 1022.95C708.584 1022.95 710.609 1023.29 712.569 1023.99C714.53 1024.68 716.29 1025.76 717.849 1027.24C719.407 1028.72 720.637 1030.64 721.537 1033C722.437 1035.35 722.887 1038.2 722.887 1041.56V1044.11H693.453V1038.71H715.824C715.824 1036.82 715.438 1035.14 714.667 1033.68C713.895 1032.2 712.81 1031.03 711.412 1030.18C710.03 1029.33 708.407 1028.9 706.543 1028.9C704.518 1028.9 702.75 1029.4 701.24 1030.4C699.745 1031.38 698.588 1032.66 697.768 1034.25C696.965 1035.83 696.563 1037.54 696.563 1039.39V1043.61C696.563 1046.08 696.997 1048.19 697.865 1049.92C698.749 1051.66 699.978 1052.99 701.553 1053.9C703.128 1054.8 704.968 1055.25 707.073 1055.25C708.439 1055.25 709.685 1055.06 710.81 1054.67C711.935 1054.27 712.907 1053.68 713.727 1052.89C714.546 1052.1 715.173 1051.13 715.607 1049.97L722.429 1051.2C721.882 1053.21 720.902 1054.97 719.488 1056.48C718.09 1057.98 716.33 1059.14 714.209 1059.98C712.103 1060.8 709.701 1061.21 707.001 1061.21ZM746.408 1075.11C743.467 1075.11 740.936 1074.73 738.815 1073.96C736.709 1073.19 734.99 1072.17 733.656 1070.9C732.322 1069.63 731.326 1068.24 730.667 1066.73L736.862 1064.17C737.296 1064.88 737.875 1065.62 738.598 1066.41C739.337 1067.22 740.333 1067.9 741.587 1068.46C742.856 1069.02 744.488 1069.3 746.48 1069.3C749.212 1069.3 751.47 1068.64 753.254 1067.3C755.038 1065.99 755.93 1063.88 755.93 1060.99V1053.71H755.472C755.038 1054.5 754.411 1055.37 753.592 1056.34C752.788 1057.3 751.679 1058.14 750.265 1058.84C748.851 1059.55 747.011 1059.9 744.745 1059.9C741.82 1059.9 739.184 1059.22 736.838 1057.85C734.508 1056.47 732.66 1054.44 731.294 1051.76C729.944 1049.06 729.269 1045.74 729.269 1041.8C729.269 1037.86 729.936 1034.49 731.27 1031.68C732.62 1028.86 734.468 1026.71 736.814 1025.22C739.16 1023.7 741.82 1022.95 744.793 1022.95C747.091 1022.95 748.947 1023.33 750.361 1024.11C751.776 1024.86 752.877 1025.75 753.664 1026.76C754.468 1027.77 755.086 1028.66 755.52 1029.43H756.05V1023.43H763.113V1061.28C763.113 1064.46 762.374 1067.07 760.896 1069.11C759.417 1071.15 757.416 1072.66 754.893 1073.64C752.386 1074.62 749.558 1075.11 746.408 1075.11ZM746.336 1053.93C748.409 1053.93 750.161 1053.44 751.591 1052.48C753.037 1051.5 754.13 1050.1 754.869 1048.28C755.625 1046.45 756.002 1044.26 756.002 1041.7C756.002 1039.21 755.633 1037.02 754.893 1035.12C754.154 1033.23 753.069 1031.75 751.639 1030.69C750.209 1029.61 748.441 1029.07 746.336 1029.07C744.166 1029.07 742.358 1029.63 740.912 1030.76C739.466 1031.87 738.373 1033.38 737.634 1035.29C736.91 1037.2 736.549 1039.34 736.549 1041.7C736.549 1044.13 736.918 1046.26 737.658 1048.09C738.397 1049.92 739.49 1051.35 740.936 1052.38C742.398 1053.41 744.198 1053.93 746.336 1053.93ZM783.555 1061.28C781.209 1061.28 779.088 1060.84 777.191 1059.98C775.295 1059.09 773.792 1057.81 772.684 1056.14C771.591 1054.47 771.044 1052.42 771.044 1050C771.044 1047.91 771.446 1046.19 772.25 1044.84C773.053 1043.49 774.138 1042.42 775.504 1041.63C776.87 1040.84 778.397 1040.25 780.084 1039.85C781.771 1039.45 783.491 1039.14 785.243 1038.93C787.46 1038.67 789.26 1038.47 790.642 1038.3C792.025 1038.13 793.029 1037.85 793.656 1037.46C794.282 1037.08 794.596 1036.45 794.596 1035.58V1035.41C794.596 1033.31 794.001 1031.68 792.812 1030.52C791.639 1029.36 789.887 1028.78 787.557 1028.78C785.13 1028.78 783.218 1029.32 781.82 1030.4C780.438 1031.46 779.481 1032.64 778.951 1033.94L772.177 1032.4C772.981 1030.15 774.154 1028.33 775.697 1026.95C777.256 1025.55 779.048 1024.54 781.072 1023.91C783.097 1023.27 785.227 1022.95 787.46 1022.95C788.939 1022.95 790.506 1023.13 792.161 1023.48C793.832 1023.82 795.391 1024.44 796.838 1025.36C798.3 1026.28 799.497 1027.59 800.429 1029.29C801.362 1030.98 801.828 1033.17 801.828 1035.87V1060.46H794.789V1055.4H794.499C794.033 1056.33 793.334 1057.24 792.402 1058.14C791.47 1059.04 790.273 1059.79 788.81 1060.39C787.348 1060.98 785.596 1061.28 783.555 1061.28ZM785.122 1055.49C787.115 1055.49 788.818 1055.1 790.233 1054.31C791.663 1053.52 792.748 1052.5 793.487 1051.23C794.242 1049.94 794.62 1048.57 794.62 1047.1V1042.33C794.363 1042.59 793.865 1042.83 793.125 1043.05C792.402 1043.26 791.575 1043.45 790.642 1043.61C789.71 1043.75 788.802 1043.89 787.918 1044.02C787.035 1044.13 786.295 1044.23 785.701 1044.31C784.303 1044.48 783.025 1044.78 781.868 1045.2C780.727 1045.62 779.811 1046.22 779.12 1047.01C778.445 1047.78 778.107 1048.81 778.107 1050.09C778.107 1051.88 778.766 1053.23 780.084 1054.14C781.402 1055.04 783.081 1055.49 785.122 1055.49ZM827.024 1061.21C823.441 1061.21 820.355 1060.39 817.768 1058.77C815.196 1057.13 813.22 1054.87 811.838 1052C810.455 1049.12 809.764 1045.83 809.764 1042.11C809.764 1038.35 810.472 1035.03 811.886 1032.16C813.3 1029.26 815.293 1027.01 817.864 1025.38C820.435 1023.76 823.465 1022.95 826.952 1022.95C829.764 1022.95 832.271 1023.47 834.473 1024.52C836.675 1025.54 838.45 1026.99 839.8 1028.86C841.166 1030.72 841.978 1032.9 842.235 1035.39H835.22C834.835 1033.65 833.951 1032.16 832.569 1030.9C831.203 1029.65 829.371 1029.02 827.072 1029.02C825.064 1029.02 823.304 1029.55 821.793 1030.61C820.299 1031.66 819.134 1033.15 818.298 1035.1C817.462 1037.03 817.044 1039.31 817.044 1041.94C817.044 1044.64 817.454 1046.97 818.274 1048.94C819.093 1050.9 820.251 1052.41 821.745 1053.49C823.256 1054.57 825.032 1055.11 827.072 1055.11C828.438 1055.11 829.676 1054.86 830.785 1054.36C831.91 1053.84 832.85 1053.11 833.605 1052.17C834.377 1051.22 834.915 1050.08 835.22 1048.74H842.235C841.978 1051.14 841.199 1053.27 839.897 1055.15C838.595 1057.03 836.851 1058.51 834.666 1059.59C832.496 1060.67 829.949 1061.21 827.024 1061.21ZM854.499 1074.34C853.422 1074.34 852.442 1074.25 851.558 1074.08C850.674 1073.92 850.015 1073.74 849.581 1073.55L851.317 1067.64C852.635 1068 853.808 1068.15 854.836 1068.1C855.865 1068.05 856.773 1067.67 857.56 1066.94C858.364 1066.22 859.071 1065.04 859.682 1063.4L860.574 1060.94L847.026 1023.43H854.74L864.117 1052.17H864.503L873.88 1023.43H881.618L866.359 1065.4C865.652 1067.33 864.752 1068.96 863.659 1070.29C862.566 1071.64 861.265 1072.66 859.754 1073.33C858.243 1074.01 856.492 1074.34 854.499 1074.34ZM906.935 1060.46V1011.09H924.533C928.374 1011.09 931.556 1011.79 934.079 1013.19C936.602 1014.58 938.49 1016.5 939.744 1018.92C940.997 1021.33 941.624 1024.05 941.624 1027.07C941.624 1030.11 940.989 1032.84 939.719 1035.27C938.466 1037.68 936.57 1039.59 934.03 1041C931.507 1042.4 928.333 1043.1 924.509 1043.1H912.407V1036.79H923.834C926.26 1036.79 928.229 1036.37 929.74 1035.53C931.25 1034.68 932.359 1033.52 933.066 1032.06C933.773 1030.6 934.127 1028.94 934.127 1027.07C934.127 1025.21 933.773 1023.55 933.066 1022.11C932.359 1020.66 931.242 1019.53 929.715 1018.71C928.205 1017.89 926.212 1017.48 923.737 1017.48H914.384V1060.46H906.935ZM965.272 1061.21C961.624 1061.21 958.482 1060.43 955.846 1058.87C953.227 1057.29 951.202 1055.08 949.772 1052.24C948.357 1049.38 947.65 1046.03 947.65 1042.19C947.65 1038.39 948.357 1035.05 949.772 1032.16C951.202 1029.26 953.195 1027.01 955.75 1025.38C958.321 1023.76 961.326 1022.95 964.765 1022.95C966.855 1022.95 968.88 1023.29 970.84 1023.99C972.801 1024.68 974.561 1025.76 976.119 1027.24C977.678 1028.72 978.908 1030.64 979.808 1033C980.708 1035.35 981.157 1038.2 981.157 1041.56V1044.11H951.724V1038.71H974.094C974.094 1036.82 973.709 1035.14 972.937 1033.68C972.166 1032.2 971.081 1031.03 969.683 1030.18C968.301 1029.33 966.678 1028.9 964.814 1028.9C962.789 1028.9 961.021 1029.4 959.51 1030.4C958.016 1031.38 956.859 1032.66 956.039 1034.25C955.236 1035.83 954.834 1037.54 954.834 1039.39V1043.61C954.834 1046.08 955.268 1048.19 956.136 1049.92C957.019 1051.66 958.249 1052.99 959.824 1053.9C961.399 1054.8 963.239 1055.25 965.344 1055.25C966.71 1055.25 967.955 1055.06 969.08 1054.67C970.205 1054.27 971.178 1053.68 971.997 1052.89C972.817 1052.1 973.444 1051.13 973.878 1049.97L980.699 1051.2C980.153 1053.21 979.173 1054.97 977.759 1056.48C976.36 1057.98 974.601 1059.14 972.479 1059.98C970.374 1060.8 967.972 1061.21 965.272 1061.21ZM989.155 1060.46V1023.43H996.121V1029.31H996.507C997.182 1027.32 998.371 1025.75 1000.07 1024.61C1001.79 1023.46 1003.74 1022.88 1005.91 1022.88C1006.36 1022.88 1006.89 1022.89 1007.5 1022.93C1008.13 1022.96 1008.62 1023 1008.97 1023.05V1029.94C1008.68 1029.86 1008.17 1029.77 1007.43 1029.67C1006.69 1029.56 1005.95 1029.51 1005.21 1029.51C1003.51 1029.51 1001.99 1029.87 1000.65 1030.59C999.335 1031.3 998.291 1032.29 997.519 1033.56C996.748 1034.81 996.362 1036.24 996.362 1037.85V1060.46H989.155ZM1042.95 1032.47L1036.42 1033.63C1036.15 1032.79 1035.71 1032 1035.12 1031.24C1034.54 1030.49 1033.75 1029.87 1032.76 1029.39C1031.76 1028.9 1030.51 1028.66 1029.02 1028.66C1026.98 1028.66 1025.28 1029.12 1023.91 1030.04C1022.54 1030.94 1021.86 1032.1 1021.86 1033.53C1021.86 1034.77 1022.32 1035.77 1023.23 1036.52C1024.15 1037.28 1025.63 1037.89 1027.67 1038.38L1033.55 1039.73C1036.96 1040.51 1039.5 1041.73 1041.17 1043.37C1042.84 1045.01 1043.68 1047.14 1043.68 1049.75C1043.68 1051.97 1043.03 1053.95 1041.75 1055.69C1040.48 1057.4 1038.7 1058.75 1036.42 1059.73C1034.15 1060.72 1031.53 1061.21 1028.54 1061.21C1024.39 1061.21 1021.01 1060.32 1018.39 1058.55C1015.77 1056.77 1014.16 1054.24 1013.57 1050.96L1020.53 1049.9C1020.97 1051.72 1021.86 1053.09 1023.21 1054.02C1024.56 1054.94 1026.32 1055.4 1028.49 1055.4C1030.85 1055.4 1032.74 1054.91 1034.15 1053.93C1035.57 1052.93 1036.28 1051.72 1036.28 1050.29C1036.28 1049.13 1035.84 1048.16 1034.97 1047.37C1034.12 1046.58 1032.81 1045.99 1031.04 1045.58L1024.78 1044.21C1021.32 1043.42 1018.77 1042.17 1017.11 1040.45C1015.47 1038.73 1014.65 1036.55 1014.65 1033.92C1014.65 1031.73 1015.26 1029.82 1016.48 1028.18C1017.71 1026.54 1019.39 1025.26 1021.55 1024.35C1023.7 1023.42 1026.17 1022.95 1028.95 1022.95C1032.95 1022.95 1036.1 1023.82 1038.4 1025.55C1040.7 1027.27 1042.21 1029.58 1042.95 1032.47ZM1067.2 1061.21C1063.73 1061.21 1060.7 1060.41 1058.11 1058.82C1055.52 1057.23 1053.51 1055 1052.08 1052.14C1050.65 1049.28 1049.94 1045.94 1049.94 1042.11C1049.94 1038.27 1050.65 1034.91 1052.08 1032.04C1053.51 1029.16 1055.52 1026.93 1058.11 1025.34C1060.7 1023.74 1063.73 1022.95 1067.2 1022.95C1070.67 1022.95 1073.7 1023.74 1076.29 1025.34C1078.87 1026.93 1080.88 1029.16 1082.31 1032.04C1083.74 1034.91 1084.46 1038.27 1084.46 1042.11C1084.46 1045.94 1083.74 1049.28 1082.31 1052.14C1080.88 1055 1078.87 1057.23 1076.29 1058.82C1073.7 1060.41 1070.67 1061.21 1067.2 1061.21ZM1067.22 1055.15C1069.47 1055.15 1071.34 1054.56 1072.81 1053.37C1074.29 1052.18 1075.39 1050.6 1076.09 1048.62C1076.82 1046.65 1077.18 1044.47 1077.18 1042.09C1077.18 1039.73 1076.82 1037.56 1076.09 1035.58C1075.39 1033.59 1074.29 1031.99 1072.81 1030.78C1071.34 1029.58 1069.47 1028.98 1067.22 1028.98C1064.96 1028.98 1063.08 1029.58 1061.58 1030.78C1060.1 1031.99 1059 1033.59 1058.28 1035.58C1057.57 1037.56 1057.22 1039.73 1057.22 1042.09C1057.22 1044.47 1057.57 1046.65 1058.28 1048.62C1059 1050.6 1060.1 1052.18 1061.58 1053.37C1063.08 1054.56 1064.96 1055.15 1067.22 1055.15ZM1099.71 1038.47V1060.46H1092.5V1023.43H1099.42V1029.46H1099.88C1100.73 1027.5 1102.06 1025.92 1103.88 1024.73C1105.71 1023.54 1108.02 1022.95 1110.8 1022.95C1113.32 1022.95 1115.53 1023.48 1117.43 1024.54C1119.32 1025.58 1120.79 1027.14 1121.84 1029.22C1122.88 1031.29 1123.41 1033.85 1123.41 1036.91V1060.46H1116.2V1037.77C1116.2 1035.09 1115.5 1032.99 1114.1 1031.48C1112.7 1029.96 1110.78 1029.19 1108.34 1029.19C1106.67 1029.19 1105.18 1029.55 1103.88 1030.28C1102.6 1031 1101.57 1032.06 1100.82 1033.46C1100.08 1034.84 1099.71 1036.51 1099.71 1038.47ZM1143.85 1061.28C1141.5 1061.28 1139.38 1060.84 1137.48 1059.98C1135.59 1059.09 1134.09 1057.81 1132.98 1056.14C1131.88 1054.47 1131.34 1052.42 1131.34 1050C1131.34 1047.91 1131.74 1046.19 1132.54 1044.84C1133.35 1043.49 1134.43 1042.42 1135.8 1041.63C1137.16 1040.84 1138.69 1040.25 1140.38 1039.85C1142.06 1039.45 1143.78 1039.14 1145.54 1038.93C1147.75 1038.67 1149.55 1038.47 1150.94 1038.3C1152.32 1038.13 1153.32 1037.85 1153.95 1037.46C1154.58 1037.08 1154.89 1036.45 1154.89 1035.58V1035.41C1154.89 1033.31 1154.29 1031.68 1153.1 1030.52C1151.93 1029.36 1150.18 1028.78 1147.85 1028.78C1145.42 1028.78 1143.51 1029.32 1142.11 1030.4C1140.73 1031.46 1139.77 1032.64 1139.24 1033.94L1132.47 1032.4C1133.27 1030.15 1134.45 1028.33 1135.99 1026.95C1137.55 1025.55 1139.34 1024.54 1141.37 1023.91C1143.39 1023.27 1145.52 1022.95 1147.75 1022.95C1149.23 1022.95 1150.8 1023.13 1152.45 1023.48C1154.13 1023.82 1155.68 1024.44 1157.13 1025.36C1158.59 1026.28 1159.79 1027.59 1160.72 1029.29C1161.65 1030.98 1162.12 1033.17 1162.12 1035.87V1060.46H1155.08V1055.4H1154.79C1154.33 1056.33 1153.63 1057.24 1152.7 1058.14C1151.76 1059.04 1150.57 1059.79 1149.1 1060.39C1147.64 1060.98 1145.89 1061.28 1143.85 1061.28ZM1145.42 1055.49C1147.41 1055.49 1149.11 1055.1 1150.53 1054.31C1151.96 1053.52 1153.04 1052.5 1153.78 1051.23C1154.54 1049.94 1154.91 1048.57 1154.91 1047.1V1042.33C1154.66 1042.59 1154.16 1042.83 1153.42 1043.05C1152.7 1043.26 1151.87 1043.45 1150.94 1043.61C1150 1043.75 1149.1 1043.89 1148.21 1044.02C1147.33 1044.13 1146.59 1044.23 1145.99 1044.31C1144.6 1044.48 1143.32 1044.78 1142.16 1045.2C1141.02 1045.62 1140.1 1046.22 1139.41 1047.01C1138.74 1047.78 1138.4 1048.81 1138.4 1050.09C1138.4 1051.88 1139.06 1053.23 1140.38 1054.14C1141.69 1055.04 1143.37 1055.49 1145.42 1055.49ZM1178.93 1011.09V1060.46H1171.72V1011.09H1178.93ZM1207.17 1060.46V1011.09H1237.78V1017.5H1214.62V1032.54H1235.59V1038.93H1214.62V1060.46H1207.17ZM1246.36 1060.46V1023.43H1253.57V1060.46H1246.36ZM1250 1017.72C1248.75 1017.72 1247.67 1017.3 1246.77 1016.46C1245.89 1015.61 1245.45 1014.6 1245.45 1013.43C1245.45 1012.24 1245.89 1011.23 1246.77 1010.39C1247.67 1009.54 1248.75 1009.11 1250 1009.11C1251.26 1009.11 1252.33 1009.54 1253.21 1010.39C1254.11 1011.23 1254.56 1012.24 1254.56 1013.43C1254.56 1014.6 1254.11 1015.61 1253.21 1016.46C1252.33 1017.3 1251.26 1017.72 1250 1017.72ZM1270.48 1038.47V1060.46H1263.27V1023.43H1270.19V1029.46H1270.65C1271.5 1027.5 1272.83 1025.92 1274.65 1024.73C1276.48 1023.54 1278.79 1022.95 1281.57 1022.95C1284.09 1022.95 1286.3 1023.48 1288.19 1024.54C1290.09 1025.58 1291.56 1027.14 1292.61 1029.22C1293.65 1031.29 1294.17 1033.85 1294.17 1036.91V1060.46H1286.97V1037.77C1286.97 1035.09 1286.27 1032.99 1284.87 1031.48C1283.47 1029.96 1281.55 1029.19 1279.11 1029.19C1277.44 1029.19 1275.95 1029.55 1274.65 1030.28C1273.36 1031 1272.34 1032.06 1271.59 1033.46C1270.85 1034.84 1270.48 1036.51 1270.48 1038.47ZM1314.61 1061.28C1312.27 1061.28 1310.15 1060.84 1308.25 1059.98C1306.35 1059.09 1304.85 1057.81 1303.74 1056.14C1302.65 1054.47 1302.1 1052.42 1302.1 1050C1302.1 1047.91 1302.51 1046.19 1303.31 1044.84C1304.11 1043.49 1305.2 1042.42 1306.56 1041.63C1307.93 1040.84 1309.46 1040.25 1311.14 1039.85C1312.83 1039.45 1314.55 1039.14 1316.3 1038.93C1318.52 1038.67 1320.32 1038.47 1321.7 1038.3C1323.08 1038.13 1324.09 1037.85 1324.71 1037.46C1325.34 1037.08 1325.66 1036.45 1325.66 1035.58V1035.41C1325.66 1033.31 1325.06 1031.68 1323.87 1030.52C1322.7 1029.36 1320.95 1028.78 1318.62 1028.78C1316.19 1028.78 1314.28 1029.32 1312.88 1030.4C1311.5 1031.46 1310.54 1032.64 1310.01 1033.94L1303.24 1032.4C1304.04 1030.15 1305.21 1028.33 1306.76 1026.95C1308.31 1025.55 1310.11 1024.54 1312.13 1023.91C1314.16 1023.27 1316.29 1022.95 1318.52 1022.95C1320 1022.95 1321.57 1023.13 1323.22 1023.48C1324.89 1023.82 1326.45 1024.44 1327.9 1025.36C1329.36 1026.28 1330.56 1027.59 1331.49 1029.29C1332.42 1030.98 1332.89 1033.17 1332.89 1035.87V1060.46H1325.85V1055.4H1325.56C1325.09 1056.33 1324.39 1057.24 1323.46 1058.14C1322.53 1059.04 1321.33 1059.79 1319.87 1060.39C1318.41 1060.98 1316.66 1061.28 1314.61 1061.28ZM1316.18 1055.49C1318.17 1055.49 1319.88 1055.1 1321.29 1054.31C1322.72 1053.52 1323.81 1052.5 1324.55 1051.23C1325.3 1049.94 1325.68 1048.57 1325.68 1047.1V1042.33C1325.42 1042.59 1324.92 1042.83 1324.18 1043.05C1323.46 1043.26 1322.63 1043.45 1321.7 1043.61C1320.77 1043.75 1319.86 1043.89 1318.98 1044.02C1318.09 1044.13 1317.35 1044.23 1316.76 1044.31C1315.36 1044.48 1314.08 1044.78 1312.93 1045.2C1311.79 1045.62 1310.87 1046.22 1310.18 1047.01C1309.5 1047.78 1309.17 1048.81 1309.17 1050.09C1309.17 1051.88 1309.83 1053.23 1311.14 1054.14C1312.46 1055.04 1314.14 1055.49 1316.18 1055.49ZM1349.69 1038.47V1060.46H1342.49V1023.43H1349.41V1029.46H1349.86C1350.72 1027.5 1352.05 1025.92 1353.86 1024.73C1355.7 1023.54 1358 1022.95 1360.78 1022.95C1363.31 1022.95 1365.52 1023.48 1367.41 1024.54C1369.31 1025.58 1370.78 1027.14 1371.82 1029.22C1372.87 1031.29 1373.39 1033.85 1373.39 1036.91V1060.46H1366.18V1037.77C1366.18 1035.09 1365.48 1032.99 1364.09 1031.48C1362.69 1029.96 1360.77 1029.19 1358.32 1029.19C1356.65 1029.19 1355.17 1029.55 1353.86 1030.28C1352.58 1031 1351.56 1032.06 1350.8 1033.46C1350.06 1034.84 1349.69 1036.51 1349.69 1038.47ZM1398.65 1061.21C1395.07 1061.21 1391.98 1060.39 1389.4 1058.77C1386.83 1057.13 1384.85 1054.87 1383.47 1052C1382.08 1049.12 1381.39 1045.83 1381.39 1042.11C1381.39 1038.35 1382.1 1035.03 1383.52 1032.16C1384.93 1029.26 1386.92 1027.01 1389.49 1025.38C1392.06 1023.76 1395.09 1022.95 1398.58 1022.95C1401.39 1022.95 1403.9 1023.47 1406.1 1024.52C1408.3 1025.54 1410.08 1026.99 1411.43 1028.86C1412.8 1030.72 1413.61 1032.9 1413.86 1035.39H1406.85C1406.46 1033.65 1405.58 1032.16 1404.2 1030.9C1402.83 1029.65 1401 1029.02 1398.7 1029.02C1396.69 1029.02 1394.93 1029.55 1393.42 1030.61C1391.93 1031.66 1390.76 1033.15 1389.93 1035.1C1389.09 1037.03 1388.67 1039.31 1388.67 1041.94C1388.67 1044.64 1389.08 1046.97 1389.9 1048.94C1390.72 1050.9 1391.88 1052.41 1393.37 1053.49C1394.89 1054.57 1396.66 1055.11 1398.7 1055.11C1400.07 1055.11 1401.31 1054.86 1402.41 1054.36C1403.54 1053.84 1404.48 1053.11 1405.23 1052.17C1406.01 1051.22 1406.54 1050.08 1406.85 1048.74H1413.86C1413.61 1051.14 1412.83 1053.27 1411.53 1055.15C1410.22 1057.03 1408.48 1058.51 1406.3 1059.59C1404.13 1060.67 1401.58 1061.21 1398.65 1061.21ZM1437.53 1061.21C1433.88 1061.21 1430.74 1060.43 1428.11 1058.87C1425.49 1057.29 1423.46 1055.08 1422.03 1052.24C1420.62 1049.38 1419.91 1046.03 1419.91 1042.19C1419.91 1038.39 1420.62 1035.05 1422.03 1032.16C1423.46 1029.26 1425.45 1027.01 1428.01 1025.38C1430.58 1023.76 1433.59 1022.95 1437.02 1022.95C1439.11 1022.95 1441.14 1023.29 1443.1 1023.99C1445.06 1024.68 1446.82 1025.76 1448.38 1027.24C1449.94 1028.72 1451.17 1030.64 1452.07 1033C1452.97 1035.35 1453.42 1038.2 1453.42 1041.56V1044.11H1423.98V1038.71H1446.35C1446.35 1036.82 1445.97 1035.14 1445.2 1033.68C1444.42 1032.2 1443.34 1031.03 1441.94 1030.18C1440.56 1029.33 1438.94 1028.9 1437.07 1028.9C1435.05 1028.9 1433.28 1029.4 1431.77 1030.4C1430.27 1031.38 1429.12 1032.66 1428.3 1034.25C1427.49 1035.83 1427.09 1037.54 1427.09 1039.39V1043.61C1427.09 1046.08 1427.53 1048.19 1428.39 1049.92C1429.28 1051.66 1430.51 1052.99 1432.08 1053.9C1433.66 1054.8 1435.5 1055.25 1437.6 1055.25C1438.97 1055.25 1440.21 1055.06 1441.34 1054.67C1442.46 1054.27 1443.44 1053.68 1444.26 1052.89C1445.08 1052.1 1445.7 1051.13 1446.14 1049.97L1452.96 1051.2C1452.41 1053.21 1451.43 1054.97 1450.02 1056.48C1448.62 1057.98 1446.86 1059.14 1444.74 1059.98C1442.63 1060.8 1440.23 1061.21 1437.53 1061.21ZM1506.88 1024.06C1506.63 1021.78 1505.57 1020.01 1503.7 1018.75C1501.84 1017.49 1499.49 1016.85 1496.66 1016.85C1494.64 1016.85 1492.89 1017.17 1491.41 1017.81C1489.93 1018.44 1488.78 1019.31 1487.96 1020.42C1487.16 1021.51 1486.75 1022.76 1486.75 1024.15C1486.75 1025.33 1487.03 1026.34 1487.57 1027.19C1488.14 1028.04 1488.87 1028.76 1489.77 1029.34C1490.68 1029.9 1491.66 1030.37 1492.71 1030.76C1493.75 1031.13 1494.76 1031.43 1495.72 1031.68L1500.54 1032.93C1502.12 1033.31 1503.73 1033.84 1505.39 1034.5C1507.04 1035.15 1508.58 1036.02 1509.99 1037.1C1511.41 1038.18 1512.55 1039.51 1513.42 1041.1C1514.3 1042.69 1514.74 1044.6 1514.74 1046.81C1514.74 1049.61 1514.02 1052.09 1512.57 1054.26C1511.14 1056.43 1509.06 1058.14 1506.33 1059.4C1503.61 1060.65 1500.33 1061.28 1496.47 1061.28C1492.77 1061.28 1489.58 1060.69 1486.88 1059.52C1484.18 1058.34 1482.06 1056.68 1480.54 1054.53C1479.01 1052.36 1478.17 1049.79 1478 1046.81H1485.48C1485.62 1048.6 1486.2 1050.08 1487.21 1051.27C1488.24 1052.45 1489.55 1053.32 1491.14 1053.9C1492.75 1054.46 1494.51 1054.74 1496.42 1054.74C1498.53 1054.74 1500.4 1054.42 1502.04 1053.76C1503.69 1053.08 1504.99 1052.15 1505.94 1050.96C1506.89 1049.75 1507.37 1048.35 1507.37 1046.74C1507.37 1045.28 1506.95 1044.08 1506.11 1043.15C1505.29 1042.22 1504.18 1041.45 1502.76 1040.84C1501.36 1040.23 1499.78 1039.69 1498.01 1039.22L1492.18 1037.63C1488.23 1036.55 1485.09 1034.97 1482.78 1032.88C1480.48 1030.79 1479.33 1028.03 1479.33 1024.59C1479.33 1021.74 1480.1 1019.26 1481.64 1017.14C1483.19 1015.02 1485.28 1013.37 1487.91 1012.2C1490.55 1011.01 1493.52 1010.41 1496.83 1010.41C1500.17 1010.41 1503.12 1011 1505.68 1012.17C1508.25 1013.35 1510.27 1014.96 1511.75 1017.02C1513.23 1019.06 1514 1021.41 1514.07 1024.06H1506.88ZM1538.66 1061.21C1535.19 1061.21 1532.16 1060.41 1529.57 1058.82C1526.99 1057.23 1524.98 1055 1523.55 1052.14C1522.12 1049.28 1521.4 1045.94 1521.4 1042.11C1521.4 1038.27 1522.12 1034.91 1523.55 1032.04C1524.98 1029.16 1526.99 1026.93 1529.57 1025.34C1532.16 1023.74 1535.19 1022.95 1538.66 1022.95C1542.13 1022.95 1545.16 1023.74 1547.75 1025.34C1550.34 1026.93 1552.34 1029.16 1553.78 1032.04C1555.21 1034.91 1555.92 1038.27 1555.92 1042.11C1555.92 1045.94 1555.21 1049.28 1553.78 1052.14C1552.34 1055 1550.34 1057.23 1547.75 1058.82C1545.16 1060.41 1542.13 1061.21 1538.66 1061.21ZM1538.68 1055.15C1540.93 1055.15 1542.8 1054.56 1544.28 1053.37C1545.76 1052.18 1546.85 1050.6 1547.56 1048.62C1548.28 1046.65 1548.64 1044.47 1548.64 1042.09C1548.64 1039.73 1548.28 1037.56 1547.56 1035.58C1546.85 1033.59 1545.76 1031.99 1544.28 1030.78C1542.8 1029.58 1540.93 1028.98 1538.68 1028.98C1536.42 1028.98 1534.54 1029.58 1533.04 1030.78C1531.57 1031.99 1530.46 1033.59 1529.74 1035.58C1529.03 1037.56 1528.68 1039.73 1528.68 1042.09C1528.68 1044.47 1529.03 1046.65 1529.74 1048.62C1530.46 1050.6 1531.57 1052.18 1533.04 1053.37C1534.54 1054.56 1536.42 1055.15 1538.68 1055.15ZM1571.17 1011.09V1060.46H1563.97V1011.09H1571.17ZM1604.33 1045.1V1023.43H1611.56V1060.46H1604.47V1054.05H1604.08C1603.23 1056.02 1601.87 1057.67 1599.99 1058.99C1598.12 1060.29 1595.8 1060.94 1593.02 1060.94C1590.64 1060.94 1588.54 1060.42 1586.7 1059.37C1584.89 1058.31 1583.46 1056.75 1582.41 1054.67C1581.38 1052.6 1580.87 1050.04 1580.87 1046.98V1023.43H1588.08V1046.11C1588.08 1048.64 1588.78 1050.65 1590.18 1052.14C1591.57 1053.64 1593.39 1054.38 1595.62 1054.38C1596.97 1054.38 1598.31 1054.05 1599.65 1053.37C1601 1052.7 1602.12 1051.68 1603 1050.31C1603.9 1048.94 1604.34 1047.21 1604.33 1045.1ZM1638.53 1023.43V1029.22H1618.3V1023.43H1638.53ZM1623.72 1014.56H1630.93V1049.59C1630.93 1050.98 1631.14 1052.04 1631.56 1052.74C1631.98 1053.44 1632.52 1053.91 1633.17 1054.17C1633.85 1054.41 1634.58 1054.53 1635.37 1054.53C1635.95 1054.53 1636.45 1054.49 1636.89 1054.41C1637.32 1054.33 1637.66 1054.26 1637.9 1054.21L1639.2 1060.17C1638.78 1060.33 1638.19 1060.49 1637.42 1060.65C1636.65 1060.83 1635.68 1060.92 1634.52 1060.94C1632.63 1060.97 1630.86 1060.63 1629.22 1059.93C1627.58 1059.22 1626.26 1058.13 1625.24 1056.65C1624.23 1055.17 1623.72 1053.31 1623.72 1051.08V1014.56ZM1646.5 1060.46V1023.43H1653.71V1060.46H1646.5ZM1650.14 1017.72C1648.89 1017.72 1647.81 1017.3 1646.91 1016.46C1646.02 1015.61 1645.58 1014.6 1645.58 1013.43C1645.58 1012.24 1646.02 1011.23 1646.91 1010.39C1647.81 1009.54 1648.89 1009.11 1650.14 1009.11C1651.39 1009.11 1652.46 1009.54 1653.34 1010.39C1654.24 1011.23 1654.69 1012.24 1654.69 1013.43C1654.69 1014.6 1654.24 1015.61 1653.34 1016.46C1652.46 1017.3 1651.39 1017.72 1650.14 1017.72ZM1679 1061.21C1675.53 1061.21 1672.5 1060.41 1669.91 1058.82C1667.32 1057.23 1665.32 1055 1663.89 1052.14C1662.45 1049.28 1661.74 1045.94 1661.74 1042.11C1661.74 1038.27 1662.45 1034.91 1663.89 1032.04C1665.32 1029.16 1667.32 1026.93 1669.91 1025.34C1672.5 1023.74 1675.53 1022.95 1679 1022.95C1682.47 1022.95 1685.5 1023.74 1688.09 1025.34C1690.67 1026.93 1692.68 1029.16 1694.11 1032.04C1695.54 1034.91 1696.26 1038.27 1696.26 1042.11C1696.26 1045.94 1695.54 1049.28 1694.11 1052.14C1692.68 1055 1690.67 1057.23 1688.09 1058.82C1685.5 1060.41 1682.47 1061.21 1679 1061.21ZM1679.02 1055.15C1681.27 1055.15 1683.14 1054.56 1684.62 1053.37C1686.09 1052.18 1687.19 1050.6 1687.89 1048.62C1688.62 1046.65 1688.98 1044.47 1688.98 1042.09C1688.98 1039.73 1688.62 1037.56 1687.89 1035.58C1687.19 1033.59 1686.09 1031.99 1684.62 1030.78C1683.14 1029.58 1681.27 1028.98 1679.02 1028.98C1676.76 1028.98 1674.88 1029.58 1673.38 1030.78C1671.9 1031.99 1670.8 1033.59 1670.08 1035.58C1669.37 1037.56 1669.02 1039.73 1669.02 1042.09C1669.02 1044.47 1669.37 1046.65 1670.08 1048.62C1670.8 1050.6 1671.9 1052.18 1673.38 1053.37C1674.88 1054.56 1676.76 1055.15 1679.02 1055.15ZM1711.51 1038.47V1060.46H1704.3V1023.43H1711.22V1029.46H1711.68C1712.53 1027.5 1713.87 1025.92 1715.68 1024.73C1717.51 1023.54 1719.82 1022.95 1722.6 1022.95C1725.12 1022.95 1727.33 1023.48 1729.23 1024.54C1731.13 1025.58 1732.6 1027.14 1733.64 1029.22C1734.69 1031.29 1735.21 1033.85 1735.21 1036.91V1060.46H1728V1037.77C1728 1035.09 1727.3 1032.99 1725.9 1031.48C1724.51 1029.96 1722.58 1029.19 1720.14 1029.19C1718.47 1029.19 1716.98 1029.55 1715.68 1030.28C1714.4 1031 1713.38 1032.06 1712.62 1033.46C1711.88 1034.84 1711.51 1036.51 1711.51 1038.47ZM1772.62 1032.47L1766.09 1033.63C1765.81 1032.79 1765.38 1032 1764.79 1031.24C1764.21 1030.49 1763.42 1029.87 1762.42 1029.39C1761.43 1028.9 1760.18 1028.66 1758.69 1028.66C1756.65 1028.66 1754.94 1029.12 1753.58 1030.04C1752.21 1030.94 1751.53 1032.1 1751.53 1033.53C1751.53 1034.77 1751.99 1035.77 1752.9 1036.52C1753.82 1037.28 1755.3 1037.89 1757.34 1038.38L1763.22 1039.73C1766.63 1040.51 1769.17 1041.73 1770.84 1043.37C1772.51 1045.01 1773.34 1047.14 1773.34 1049.75C1773.34 1051.97 1772.7 1053.95 1771.42 1055.69C1770.15 1057.4 1768.37 1058.75 1766.09 1059.73C1763.82 1060.72 1761.19 1061.21 1758.21 1061.21C1754.06 1061.21 1750.68 1060.32 1748.06 1058.55C1745.44 1056.77 1743.83 1054.24 1743.24 1050.96L1750.2 1049.9C1750.64 1051.72 1751.53 1053.09 1752.88 1054.02C1754.23 1054.94 1755.99 1055.4 1758.16 1055.4C1760.52 1055.4 1762.41 1054.91 1763.82 1053.93C1765.24 1052.93 1765.94 1051.72 1765.94 1050.29C1765.94 1049.13 1765.51 1048.16 1764.64 1047.37C1763.79 1046.58 1762.48 1045.99 1760.71 1045.58L1754.44 1044.21C1750.99 1043.42 1748.43 1042.17 1746.78 1040.45C1745.14 1038.73 1744.32 1036.55 1744.32 1033.92C1744.32 1031.73 1744.93 1029.82 1746.15 1028.18C1747.37 1026.54 1749.06 1025.26 1751.21 1024.35C1753.37 1023.42 1755.83 1022.95 1758.62 1022.95C1762.62 1022.95 1765.77 1023.82 1768.06 1025.55C1770.36 1027.27 1771.88 1029.58 1772.62 1032.47Z" fill="#3A4055"/>
<line x1="281" y1="1109.29" x2="1784.5" y2="1109.29" stroke="#3A4055" stroke-width="2.43285"/>
<path d="M290.156 1204.21H282.986L303.724 1147.74H310.784L331.522 1204.21H324.352L307.474 1156.67H307.033L290.156 1204.21ZM292.803 1182.15H321.704V1188.22H292.803V1182.15ZM340.319 1147.74H348.482L367.676 1194.62H368.338L387.532 1147.74H395.695V1204.21H389.297V1161.3H388.745L371.096 1204.21H364.918L347.269 1161.3H346.717V1204.21H340.319V1147.74ZM409.408 1204.21V1147.74H443.273V1153.8H416.247V1172.89H440.736V1178.95H416.247V1204.21H409.408ZM461.826 1147.74V1204.21H454.986V1147.74H461.826ZM498.924 1172.94V1179.01H474.215V1172.94H498.924ZM511.258 1204.21V1147.74H530.342C534.754 1147.74 538.376 1148.49 541.208 1150C544.039 1151.49 546.135 1153.54 547.495 1156.15C548.856 1158.76 549.536 1161.73 549.536 1165.05C549.536 1168.38 548.856 1171.33 547.495 1173.91C546.135 1176.48 544.048 1178.5 541.235 1179.97C538.422 1181.43 534.828 1182.15 530.452 1182.15H515.009V1175.97H530.232C533.247 1175.97 535.674 1175.53 537.512 1174.65C539.369 1173.77 540.711 1172.52 541.538 1170.9C542.384 1169.26 542.807 1167.32 542.807 1165.05C542.807 1162.79 542.384 1160.82 541.538 1159.12C540.693 1157.43 539.341 1156.13 537.485 1155.21C535.628 1154.27 533.173 1153.8 530.121 1153.8H518.098V1204.21H511.258ZM537.843 1178.84L551.742 1204.21H543.8L530.121 1178.84H537.843ZM577.355 1205.1C573.273 1205.1 569.753 1204.2 566.793 1202.39C563.851 1200.57 561.58 1198.04 559.981 1194.78C558.4 1191.51 557.609 1187.7 557.609 1183.37C557.609 1179.03 558.4 1175.2 559.981 1171.89C561.58 1168.57 563.805 1165.97 566.655 1164.12C569.523 1162.24 572.869 1161.3 576.693 1161.3C578.899 1161.3 581.078 1161.67 583.229 1162.41C585.38 1163.14 587.338 1164.34 589.103 1165.99C590.868 1167.63 592.274 1169.8 593.322 1172.5C594.37 1175.2 594.894 1178.53 594.894 1182.48V1185.24H562.242V1179.61H588.275C588.275 1177.22 587.797 1175.09 586.841 1173.22C585.904 1171.34 584.562 1169.86 582.815 1168.78C581.087 1167.69 579.046 1167.15 576.693 1167.15C574.101 1167.15 571.858 1167.79 569.964 1169.08C568.089 1170.35 566.646 1172 565.634 1174.04C564.623 1176.08 564.118 1178.27 564.118 1180.61V1184.36C564.118 1187.56 564.669 1190.27 565.772 1192.49C566.894 1194.7 568.447 1196.38 570.433 1197.54C572.418 1198.68 574.726 1199.25 577.355 1199.25C579.065 1199.25 580.609 1199.01 581.988 1198.53C583.385 1198.04 584.589 1197.3 585.6 1196.33C586.612 1195.33 587.393 1194.1 587.945 1192.63L594.232 1194.4C593.57 1196.53 592.458 1198.4 590.895 1200.02C589.333 1201.62 587.402 1202.87 585.104 1203.77C582.806 1204.66 580.223 1205.1 577.355 1205.1ZM621.892 1220.98C618.749 1220.98 616.046 1220.58 613.785 1219.77C611.523 1218.98 609.639 1217.93 608.131 1216.62C606.642 1215.34 605.456 1213.96 604.574 1212.49L609.758 1208.85C610.347 1209.62 611.091 1210.5 611.992 1211.49C612.893 1212.51 614.125 1213.38 615.688 1214.11C617.269 1214.87 619.337 1215.24 621.892 1215.24C625.312 1215.24 628.134 1214.42 630.359 1212.76C632.583 1211.11 633.696 1208.52 633.696 1204.99V1196.38H633.144C632.666 1197.15 631.986 1198.11 631.103 1199.25C630.239 1200.37 628.989 1201.37 627.353 1202.26C625.735 1203.12 623.547 1203.55 620.789 1203.55C617.37 1203.55 614.299 1202.74 611.578 1201.13C608.876 1199.51 606.734 1197.15 605.153 1194.07C603.59 1190.98 602.809 1187.23 602.809 1182.81C602.809 1178.47 603.572 1174.7 605.098 1171.48C606.624 1168.24 608.747 1165.74 611.468 1163.98C614.189 1162.19 617.333 1161.3 620.9 1161.3C623.657 1161.3 625.845 1161.76 627.463 1162.68C629.099 1163.58 630.35 1164.61 631.214 1165.77C632.096 1166.91 632.776 1167.85 633.254 1168.58H633.916V1161.85H640.204V1205.43C640.204 1209.07 639.377 1212.03 637.722 1214.31C636.086 1216.61 633.879 1218.29 631.103 1219.35C628.346 1220.44 625.275 1220.98 621.892 1220.98ZM621.672 1197.71C624.282 1197.71 626.489 1197.11 628.29 1195.91C630.092 1194.72 631.462 1193 632.399 1190.76C633.337 1188.51 633.806 1185.83 633.806 1182.7C633.806 1179.65 633.346 1176.96 632.427 1174.62C631.508 1172.29 630.147 1170.46 628.346 1169.14C626.544 1167.81 624.319 1167.15 621.672 1167.15C618.914 1167.15 616.616 1167.85 614.777 1169.25C612.957 1170.64 611.588 1172.52 610.668 1174.87C609.768 1177.22 609.317 1179.84 609.317 1182.7C609.317 1185.65 609.777 1188.25 610.696 1190.51C611.634 1192.75 613.012 1194.52 614.833 1195.8C616.671 1197.07 618.951 1197.71 621.672 1197.71ZM652.117 1204.21V1161.85H658.626V1204.21H652.117ZM655.427 1154.79C654.158 1154.79 653.064 1154.36 652.145 1153.5C651.244 1152.63 650.794 1151.6 650.794 1150.38C650.794 1149.17 651.244 1148.13 652.145 1147.27C653.064 1146.4 654.158 1145.97 655.427 1145.97C656.695 1145.97 657.78 1146.4 658.681 1147.27C659.6 1148.13 660.06 1149.17 660.06 1150.38C660.06 1151.6 659.6 1152.63 658.681 1153.5C657.78 1154.36 656.695 1154.79 655.427 1154.79ZM700.55 1171.34L694.704 1173C694.336 1172.02 693.794 1171.07 693.077 1170.16C692.378 1169.22 691.422 1168.45 690.209 1167.84C688.995 1167.23 687.442 1166.93 685.548 1166.93C682.956 1166.93 680.796 1167.53 679.068 1168.72C677.358 1169.9 676.503 1171.4 676.503 1173.22C676.503 1174.83 677.091 1176.11 678.268 1177.05C679.444 1177.99 681.283 1178.77 683.783 1179.39L690.071 1180.94C693.858 1181.86 696.68 1183.26 698.537 1185.16C700.394 1187.03 701.323 1189.45 701.323 1192.41C701.323 1194.84 700.624 1197.01 699.227 1198.92C697.848 1200.83 695.917 1202.34 693.435 1203.44C690.953 1204.54 688.067 1205.1 684.776 1205.1C680.456 1205.1 676.88 1204.16 674.048 1202.28C671.217 1200.41 669.425 1197.67 668.671 1194.07L674.848 1192.52C675.436 1194.8 676.549 1196.51 678.185 1197.65C679.84 1198.79 682 1199.36 684.666 1199.36C687.699 1199.36 690.108 1198.72 691.891 1197.43C693.693 1196.12 694.594 1194.56 694.594 1192.74C694.594 1191.27 694.079 1190.04 693.049 1189.05C692.02 1188.04 690.439 1187.28 688.306 1186.78L681.246 1185.13C677.367 1184.21 674.517 1182.79 672.697 1180.86C670.895 1178.91 669.995 1176.47 669.995 1173.55C669.995 1171.16 670.666 1169.04 672.008 1167.2C673.368 1165.37 675.216 1163.92 677.551 1162.88C679.904 1161.83 682.57 1161.3 685.548 1161.3C689.74 1161.3 693.031 1162.22 695.421 1164.06C697.829 1165.9 699.539 1168.33 700.55 1171.34ZM729.541 1161.85V1167.37H707.59V1161.85H729.541ZM713.988 1151.71H720.496V1192.08C720.496 1193.92 720.762 1195.3 721.296 1196.22C721.847 1197.12 722.546 1197.72 723.391 1198.04C724.256 1198.33 725.166 1198.48 726.122 1198.48C726.839 1198.48 727.427 1198.44 727.887 1198.37C728.346 1198.28 728.714 1198.2 728.99 1198.15L730.313 1203.99C729.872 1204.16 729.256 1204.32 728.466 1204.49C727.675 1204.67 726.673 1204.77 725.46 1204.77C723.621 1204.77 721.82 1204.37 720.055 1203.58C718.308 1202.79 716.856 1201.58 715.697 1199.97C714.557 1198.35 713.988 1196.31 713.988 1193.84V1151.71ZM756.636 1205.1C752.555 1205.1 749.034 1204.2 746.074 1202.39C743.132 1200.57 740.862 1198.04 739.262 1194.78C737.681 1191.51 736.891 1187.7 736.891 1183.37C736.891 1179.03 737.681 1175.2 739.262 1171.89C740.862 1168.57 743.086 1165.97 745.936 1164.12C748.804 1162.24 752.15 1161.3 755.974 1161.3C758.18 1161.3 760.359 1161.67 762.51 1162.41C764.661 1163.14 766.619 1164.34 768.384 1165.99C770.149 1167.63 771.556 1169.8 772.604 1172.5C773.651 1175.2 774.175 1178.53 774.175 1182.48V1185.24H741.524V1179.61H767.557C767.557 1177.22 767.079 1175.09 766.123 1173.22C765.185 1171.34 763.843 1169.86 762.096 1168.78C760.368 1167.69 758.328 1167.15 755.974 1167.15C753.382 1167.15 751.139 1167.79 749.245 1169.08C747.37 1170.35 745.927 1172 744.916 1174.04C743.905 1176.08 743.399 1178.27 743.399 1180.61V1184.36C743.399 1187.56 743.95 1190.27 745.054 1192.49C746.175 1194.7 747.729 1196.38 749.714 1197.54C751.7 1198.68 754.007 1199.25 756.636 1199.25C758.346 1199.25 759.89 1199.01 761.269 1198.53C762.666 1198.04 763.871 1197.3 764.882 1196.33C765.893 1195.33 766.674 1194.1 767.226 1192.63L773.514 1194.4C772.852 1196.53 771.739 1198.4 770.177 1200.02C768.614 1201.62 766.684 1202.87 764.385 1203.77C762.087 1204.66 759.504 1205.1 756.636 1205.1ZM784.076 1204.21V1161.85H790.363V1168.25H790.805C791.577 1166.16 792.974 1164.46 794.996 1163.15C797.019 1161.85 799.299 1161.19 801.836 1161.19C802.314 1161.19 802.911 1161.2 803.628 1161.22C804.345 1161.24 804.888 1161.27 805.255 1161.3V1167.92C805.035 1167.87 804.529 1167.78 803.739 1167.67C802.966 1167.54 802.148 1167.48 801.284 1167.48C799.225 1167.48 797.387 1167.91 795.769 1168.78C794.169 1169.62 792.901 1170.8 791.963 1172.31C791.044 1173.8 790.584 1175.5 790.584 1177.41V1204.21H784.076ZM829.441 1205.1C825.359 1205.1 821.839 1204.2 818.879 1202.39C815.937 1200.57 813.666 1198.04 812.067 1194.78C810.486 1191.51 809.695 1187.7 809.695 1183.37C809.695 1179.03 810.486 1175.2 812.067 1171.89C813.666 1168.57 815.891 1165.97 818.741 1164.12C821.609 1162.24 824.955 1161.3 828.779 1161.3C830.985 1161.3 833.164 1161.67 835.315 1162.41C837.466 1163.14 839.424 1164.34 841.189 1165.99C842.954 1167.63 844.36 1169.8 845.408 1172.5C846.456 1175.2 846.98 1178.53 846.98 1182.48V1185.24H814.328V1179.61H840.361C840.361 1177.22 839.883 1175.09 838.927 1173.22C837.99 1171.34 836.648 1169.86 834.901 1168.78C833.173 1167.69 831.132 1167.15 828.779 1167.15C826.187 1167.15 823.944 1167.79 822.05 1169.08C820.175 1170.35 818.732 1172 817.72 1174.04C816.709 1176.08 816.204 1178.27 816.204 1180.61V1184.36C816.204 1187.56 816.755 1190.27 817.858 1192.49C818.98 1194.7 820.533 1196.38 822.519 1197.54C824.504 1198.68 826.812 1199.25 829.441 1199.25C831.151 1199.25 832.695 1199.01 834.074 1198.53C835.471 1198.04 836.675 1197.3 837.686 1196.33C838.698 1195.33 839.479 1194.1 840.031 1192.63L846.318 1194.4C845.656 1196.53 844.544 1198.4 842.981 1200.02C841.419 1201.62 839.488 1202.87 837.19 1203.77C834.892 1204.66 832.309 1205.1 829.441 1205.1ZM872.875 1205.1C869.345 1205.1 866.229 1204.2 863.527 1202.42C860.824 1200.62 858.71 1198.08 857.184 1194.81C855.658 1191.52 854.895 1187.63 854.895 1183.14C854.895 1178.7 855.658 1174.83 857.184 1171.56C858.71 1168.29 860.833 1165.76 863.554 1163.98C866.275 1162.19 869.419 1161.3 872.986 1161.3C875.743 1161.3 877.922 1161.76 879.522 1162.68C881.139 1163.58 882.371 1164.61 883.217 1165.77C884.081 1166.91 884.752 1167.85 885.23 1168.58H885.782V1147.74H892.29V1204.21H886.002V1197.71H885.23C884.752 1198.48 884.072 1199.45 883.189 1200.63C882.307 1201.79 881.047 1202.83 879.411 1203.75C877.775 1204.65 875.596 1205.1 872.875 1205.1ZM873.758 1199.25C876.368 1199.25 878.575 1198.57 880.376 1197.21C882.178 1195.83 883.548 1193.93 884.485 1191.5C885.423 1189.06 885.892 1186.23 885.892 1183.03C885.892 1179.87 885.432 1177.11 884.513 1174.73C883.594 1172.34 882.233 1170.49 880.432 1169.16C878.63 1167.82 876.405 1167.15 873.758 1167.15C871 1167.15 868.702 1167.86 866.863 1169.27C865.043 1170.67 863.674 1172.57 862.754 1174.98C861.854 1177.37 861.403 1180.06 861.403 1183.03C861.403 1186.05 861.863 1188.79 862.782 1191.25C863.72 1193.7 865.098 1195.65 866.919 1197.1C868.757 1198.53 871.037 1199.25 873.758 1199.25ZM927.837 1147.74H936L955.194 1194.62H955.856L975.05 1147.74H983.213V1204.21H976.815V1161.3H976.263L958.614 1204.21H952.436L934.787 1161.3H934.235V1204.21H927.837V1147.74ZM1022.74 1186.9V1161.85H1029.25V1204.21H1022.74V1197.04H1022.3C1021.3 1199.19 1019.76 1201.02 1017.66 1202.53C1015.57 1204.02 1012.92 1204.77 1009.72 1204.77C1007.07 1204.77 1004.72 1204.19 1002.66 1203.03C1000.6 1201.85 998.985 1200.09 997.808 1197.73C996.632 1195.36 996.043 1192.37 996.043 1188.77V1161.85H1002.55V1188.33C1002.55 1191.42 1003.42 1193.88 1005.14 1195.72C1006.89 1197.56 1009.12 1198.48 1011.82 1198.48C1013.44 1198.48 1015.08 1198.06 1016.75 1197.24C1018.45 1196.41 1019.86 1195.14 1021 1193.43C1022.16 1191.72 1022.74 1189.54 1022.74 1186.9ZM1059.59 1161.85V1167.37H1037.64V1161.85H1059.59ZM1044.04 1151.71H1050.54V1192.08C1050.54 1193.92 1050.81 1195.3 1051.34 1196.22C1051.89 1197.12 1052.59 1197.72 1053.44 1198.04C1054.3 1198.33 1055.21 1198.48 1056.17 1198.48C1056.89 1198.48 1057.47 1198.44 1057.93 1198.37C1058.39 1198.28 1058.76 1198.2 1059.04 1198.15L1060.36 1203.99C1059.92 1204.16 1059.3 1204.32 1058.51 1204.49C1057.72 1204.67 1056.72 1204.77 1055.51 1204.77C1053.67 1204.77 1051.87 1204.37 1050.1 1203.58C1048.36 1202.79 1046.9 1201.58 1045.74 1199.97C1044.61 1198.35 1044.04 1196.31 1044.04 1193.84V1151.71ZM1096.07 1186.9V1161.85H1102.58V1204.21H1096.07V1197.04H1095.63C1094.64 1199.19 1093.1 1201.02 1091 1202.53C1088.9 1204.02 1086.26 1204.77 1083.06 1204.77C1080.41 1204.77 1078.06 1204.19 1076 1203.03C1073.94 1201.85 1072.32 1200.09 1071.14 1197.73C1069.97 1195.36 1069.38 1192.37 1069.38 1188.77V1161.85H1075.89V1188.33C1075.89 1191.42 1076.75 1193.88 1078.48 1195.72C1080.23 1197.56 1082.45 1198.48 1085.15 1198.48C1086.77 1198.48 1088.42 1198.06 1090.09 1197.24C1091.78 1196.41 1093.2 1195.14 1094.34 1193.43C1095.49 1191.72 1096.07 1189.54 1096.07 1186.9ZM1126.97 1205.21C1124.28 1205.21 1121.85 1204.7 1119.66 1203.69C1117.47 1202.66 1115.73 1201.18 1114.45 1199.25C1113.16 1197.3 1112.52 1194.95 1112.52 1192.19C1112.52 1189.76 1112.99 1187.8 1113.95 1186.29C1114.91 1184.76 1116.18 1183.57 1117.78 1182.7C1119.38 1181.84 1121.15 1181.2 1123.08 1180.77C1125.03 1180.33 1126.99 1179.98 1128.95 1179.73C1131.53 1179.39 1133.61 1179.15 1135.21 1178.98C1136.83 1178.8 1138.01 1178.49 1138.74 1178.07C1139.5 1177.65 1139.87 1176.91 1139.87 1175.86V1175.64C1139.87 1172.92 1139.13 1170.81 1137.64 1169.3C1136.17 1167.79 1133.94 1167.04 1130.94 1167.04C1127.83 1167.04 1125.4 1167.72 1123.63 1169.08C1121.87 1170.44 1120.62 1171.89 1119.91 1173.44L1113.73 1171.23C1114.83 1168.66 1116.3 1166.65 1118.14 1165.22C1120 1163.77 1122.02 1162.76 1124.21 1162.19C1126.42 1161.6 1128.59 1161.3 1130.72 1161.3C1132.08 1161.3 1133.64 1161.47 1135.41 1161.8C1137.19 1162.11 1138.91 1162.76 1140.56 1163.76C1142.24 1164.75 1143.62 1166.25 1144.73 1168.25C1145.83 1170.26 1146.38 1172.94 1146.38 1176.31V1204.21H1139.87V1198.48H1139.54C1139.1 1199.4 1138.37 1200.38 1137.34 1201.43C1136.31 1202.48 1134.94 1203.37 1133.23 1204.1C1131.52 1204.84 1129.43 1205.21 1126.97 1205.21ZM1127.96 1199.36C1130.53 1199.36 1132.7 1198.85 1134.47 1197.84C1136.25 1196.83 1137.59 1195.53 1138.49 1193.93C1139.41 1192.33 1139.87 1190.65 1139.87 1188.88V1182.92C1139.6 1183.25 1138.99 1183.56 1138.05 1183.83C1137.13 1184.09 1136.07 1184.32 1134.85 1184.52C1133.66 1184.71 1132.49 1184.87 1131.35 1185.02C1130.23 1185.15 1129.32 1185.26 1128.62 1185.35C1126.93 1185.57 1125.35 1185.93 1123.88 1186.43C1122.43 1186.9 1121.25 1187.63 1120.35 1188.6C1119.47 1189.56 1119.03 1190.87 1119.03 1192.52C1119.03 1194.78 1119.86 1196.49 1121.53 1197.65C1123.23 1198.79 1125.37 1199.36 1127.96 1199.36ZM1164.77 1147.74V1204.21H1158.26V1147.74H1164.77ZM1199.41 1204.21V1147.74H1233.28V1153.8H1206.25V1172.89H1230.74V1178.95H1206.25V1204.21H1199.41ZM1268.15 1186.9V1161.85H1274.66V1204.21H1268.15V1197.04H1267.71C1266.72 1199.19 1265.17 1201.02 1263.08 1202.53C1260.98 1204.02 1258.33 1204.77 1255.13 1204.77C1252.49 1204.77 1250.13 1204.19 1248.07 1203.03C1246.02 1201.85 1244.4 1200.09 1243.22 1197.73C1242.04 1195.36 1241.46 1192.37 1241.46 1188.77V1161.85H1247.96V1188.33C1247.96 1191.42 1248.83 1193.88 1250.56 1195.72C1252.3 1197.56 1254.53 1198.48 1257.23 1198.48C1258.85 1198.48 1260.49 1198.06 1262.17 1197.24C1263.86 1196.41 1265.27 1195.14 1266.41 1193.43C1267.57 1191.72 1268.15 1189.54 1268.15 1186.9ZM1293.09 1178.73V1204.21H1286.58V1161.85H1292.87V1168.47H1293.42C1294.41 1166.32 1295.92 1164.59 1297.94 1163.29C1299.96 1161.97 1302.57 1161.3 1305.77 1161.3C1308.64 1161.3 1311.15 1161.89 1313.3 1163.07C1315.45 1164.23 1317.13 1165.99 1318.32 1168.36C1319.52 1170.72 1320.11 1173.69 1320.11 1177.3V1204.21H1313.61V1177.74C1313.61 1174.41 1312.74 1171.82 1311.01 1169.96C1309.28 1168.09 1306.91 1167.15 1303.9 1167.15C1301.82 1167.15 1299.96 1167.6 1298.33 1168.5C1296.71 1169.4 1295.43 1170.72 1294.49 1172.44C1293.56 1174.17 1293.09 1176.27 1293.09 1178.73ZM1348 1205.1C1344.47 1205.1 1341.36 1204.2 1338.65 1202.42C1335.95 1200.62 1333.84 1198.08 1332.31 1194.81C1330.78 1191.52 1330.02 1187.63 1330.02 1183.14C1330.02 1178.7 1330.78 1174.83 1332.31 1171.56C1333.84 1168.29 1335.96 1165.76 1338.68 1163.98C1341.4 1162.19 1344.54 1161.3 1348.11 1161.3C1350.87 1161.3 1353.05 1161.76 1354.65 1162.68C1356.27 1163.58 1357.5 1164.61 1358.34 1165.77C1359.21 1166.91 1359.88 1167.85 1360.36 1168.58H1360.91V1147.74H1367.42V1204.21H1361.13V1197.71H1360.36C1359.88 1198.48 1359.2 1199.45 1358.32 1200.63C1357.43 1201.79 1356.17 1202.83 1354.54 1203.75C1352.9 1204.65 1350.72 1205.1 1348 1205.1ZM1348.88 1199.25C1351.49 1199.25 1353.7 1198.57 1355.5 1197.21C1357.3 1195.83 1358.67 1193.93 1359.61 1191.5C1360.55 1189.06 1361.02 1186.23 1361.02 1183.03C1361.02 1179.87 1360.56 1177.11 1359.64 1174.73C1358.72 1172.34 1357.36 1170.49 1355.56 1169.16C1353.76 1167.82 1351.53 1167.15 1348.88 1167.15C1346.13 1167.15 1343.83 1167.86 1341.99 1169.27C1340.17 1170.67 1338.8 1172.57 1337.88 1174.98C1336.98 1177.37 1336.53 1180.06 1336.53 1183.03C1336.53 1186.05 1336.99 1188.79 1337.91 1191.25C1338.85 1193.7 1340.22 1195.65 1342.04 1197.1C1343.88 1198.53 1346.16 1199.25 1348.88 1199.25ZM1420.39 1204.21H1402.96V1147.74H1421.16C1426.64 1147.74 1431.33 1148.87 1435.23 1151.13C1439.13 1153.37 1442.11 1156.6 1444.19 1160.81C1446.27 1165 1447.31 1170.02 1447.31 1175.86C1447.31 1181.75 1446.26 1186.81 1444.16 1191.06C1442.07 1195.29 1439.02 1198.54 1435.01 1200.82C1431 1203.08 1426.13 1204.21 1420.39 1204.21ZM1409.8 1198.15H1419.95C1424.62 1198.15 1428.49 1197.25 1431.56 1195.44C1434.63 1193.64 1436.92 1191.08 1438.43 1187.75C1439.94 1184.42 1440.69 1180.46 1440.69 1175.86C1440.69 1171.3 1439.94 1167.38 1438.46 1164.09C1436.97 1160.78 1434.74 1158.24 1431.78 1156.48C1428.82 1154.69 1425.14 1153.8 1420.72 1153.8H1409.8V1198.15ZM1457.9 1204.21V1161.85H1464.41V1204.21H1457.9ZM1461.21 1154.79C1459.94 1154.79 1458.84 1154.36 1457.93 1153.5C1457.02 1152.63 1456.57 1151.6 1456.57 1150.38C1456.57 1149.17 1457.02 1148.13 1457.93 1147.27C1458.84 1146.4 1459.94 1145.97 1461.21 1145.97C1462.48 1145.97 1463.56 1146.4 1464.46 1147.27C1465.38 1148.13 1465.84 1149.17 1465.84 1150.38C1465.84 1151.6 1465.38 1152.63 1464.46 1153.5C1463.56 1154.36 1462.48 1154.79 1461.21 1154.79ZM1506.33 1171.34L1500.48 1173C1500.12 1172.02 1499.57 1171.07 1498.86 1170.16C1498.16 1169.22 1497.2 1168.45 1495.99 1167.84C1494.78 1167.23 1493.22 1166.93 1491.33 1166.93C1488.74 1166.93 1486.58 1167.53 1484.85 1168.72C1483.14 1169.9 1482.28 1171.4 1482.28 1173.22C1482.28 1174.83 1482.87 1176.11 1484.05 1177.05C1485.22 1177.99 1487.06 1178.77 1489.56 1179.39L1495.85 1180.94C1499.64 1181.86 1502.46 1183.26 1504.32 1185.16C1506.17 1187.03 1507.1 1189.45 1507.1 1192.41C1507.1 1194.84 1506.4 1197.01 1505.01 1198.92C1503.63 1200.83 1501.7 1202.34 1499.22 1203.44C1496.73 1204.54 1493.85 1205.1 1490.56 1205.1C1486.24 1205.1 1482.66 1204.16 1479.83 1202.28C1477 1200.41 1475.2 1197.67 1474.45 1194.07L1480.63 1192.52C1481.22 1194.8 1482.33 1196.51 1483.97 1197.65C1485.62 1198.79 1487.78 1199.36 1490.45 1199.36C1493.48 1199.36 1495.89 1198.72 1497.67 1197.43C1499.47 1196.12 1500.37 1194.56 1500.37 1192.74C1500.37 1191.27 1499.86 1190.04 1498.83 1189.05C1497.8 1188.04 1496.22 1187.28 1494.09 1186.78L1487.03 1185.13C1483.15 1184.21 1480.3 1182.79 1478.48 1180.86C1476.68 1178.91 1475.77 1176.47 1475.77 1173.55C1475.77 1171.16 1476.45 1169.04 1477.79 1167.2C1479.15 1165.37 1481 1163.92 1483.33 1162.88C1485.68 1161.83 1488.35 1161.3 1491.33 1161.3C1495.52 1161.3 1498.81 1162.22 1501.2 1164.06C1503.61 1165.9 1505.32 1168.33 1506.33 1171.34ZM1535.32 1161.85V1167.37H1513.37V1161.85H1535.32ZM1519.77 1151.71H1526.28V1192.08C1526.28 1193.92 1526.54 1195.3 1527.08 1196.22C1527.63 1197.12 1528.33 1197.72 1529.17 1198.04C1530.04 1198.33 1530.95 1198.48 1531.9 1198.48C1532.62 1198.48 1533.21 1198.44 1533.67 1198.37C1534.13 1198.28 1534.49 1198.2 1534.77 1198.15L1536.09 1203.99C1535.65 1204.16 1535.04 1204.32 1534.25 1204.49C1533.46 1204.67 1532.45 1204.77 1531.24 1204.77C1529.4 1204.77 1527.6 1204.37 1525.83 1203.58C1524.09 1202.79 1522.64 1201.58 1521.48 1199.97C1520.34 1198.35 1519.77 1196.31 1519.77 1193.84V1151.71ZM1545.11 1204.21V1161.85H1551.4V1168.25H1551.84C1552.61 1166.16 1554.01 1164.46 1556.03 1163.15C1558.05 1161.85 1560.33 1161.19 1562.87 1161.19C1563.35 1161.19 1563.95 1161.2 1564.66 1161.22C1565.38 1161.24 1565.92 1161.27 1566.29 1161.3V1167.92C1566.07 1167.87 1565.56 1167.78 1564.77 1167.67C1564 1167.54 1563.18 1167.48 1562.32 1167.48C1560.26 1167.48 1558.42 1167.91 1556.8 1168.78C1555.2 1169.62 1553.94 1170.8 1553 1172.31C1552.08 1173.8 1551.62 1175.5 1551.62 1177.41V1204.21H1545.11ZM1574.01 1204.21V1161.85H1580.51V1204.21H1574.01ZM1577.32 1154.79C1576.05 1154.79 1574.95 1154.36 1574.03 1153.5C1573.13 1152.63 1572.68 1151.6 1572.68 1150.38C1572.68 1149.17 1573.13 1148.13 1574.03 1147.27C1574.95 1146.4 1576.05 1145.97 1577.32 1145.97C1578.58 1145.97 1579.67 1146.4 1580.57 1147.27C1581.49 1148.13 1581.95 1149.17 1581.95 1150.38C1581.95 1151.6 1581.49 1152.63 1580.57 1153.5C1579.67 1154.36 1578.58 1154.79 1577.32 1154.79ZM1593.32 1204.21V1147.74H1599.83V1168.58H1600.38C1600.85 1167.85 1601.52 1166.91 1602.36 1165.77C1603.23 1164.61 1604.46 1163.58 1606.06 1162.68C1607.68 1161.76 1609.86 1161.3 1612.62 1161.3C1616.19 1161.3 1619.33 1162.19 1622.05 1163.98C1624.77 1165.76 1626.9 1168.29 1628.42 1171.56C1629.95 1174.83 1630.71 1178.7 1630.71 1183.14C1630.71 1187.63 1629.95 1191.52 1628.42 1194.81C1626.9 1198.08 1624.78 1200.62 1622.08 1202.42C1619.38 1204.2 1616.26 1205.1 1612.73 1205.1C1610.01 1205.1 1607.83 1204.65 1606.2 1203.75C1604.56 1202.83 1603.3 1201.79 1602.42 1200.63C1601.54 1199.45 1600.85 1198.48 1600.38 1197.71H1599.6V1204.21H1593.32ZM1599.71 1183.03C1599.71 1186.23 1600.18 1189.06 1601.12 1191.5C1602.06 1193.93 1603.43 1195.83 1605.23 1197.21C1607.03 1198.57 1609.24 1199.25 1611.85 1199.25C1614.57 1199.25 1616.84 1198.53 1618.66 1197.1C1620.5 1195.65 1621.88 1193.7 1622.8 1191.25C1623.73 1188.79 1624.2 1186.05 1624.2 1183.03C1624.2 1180.06 1623.74 1177.37 1622.82 1174.98C1621.92 1172.57 1620.55 1170.67 1618.72 1169.27C1616.9 1167.86 1614.61 1167.15 1611.85 1167.15C1609.2 1167.15 1606.98 1167.82 1605.18 1169.16C1603.37 1170.49 1602.01 1172.34 1601.09 1174.73C1600.17 1177.11 1599.71 1179.87 1599.71 1183.03ZM1667.36 1186.9V1161.85H1673.87V1204.21H1667.36V1197.04H1666.92C1665.93 1199.19 1664.38 1201.02 1662.29 1202.53C1660.19 1204.02 1657.54 1204.77 1654.35 1204.77C1651.7 1204.77 1649.35 1204.19 1647.29 1203.03C1645.23 1201.85 1643.61 1200.09 1642.43 1197.73C1641.26 1195.36 1640.67 1192.37 1640.67 1188.77V1161.85H1647.18V1188.33C1647.18 1191.42 1648.04 1193.88 1649.77 1195.72C1651.51 1197.56 1653.74 1198.48 1656.44 1198.48C1658.06 1198.48 1659.71 1198.06 1661.38 1197.24C1663.07 1196.41 1664.49 1195.14 1665.63 1193.43C1666.78 1191.72 1667.36 1189.54 1667.36 1186.9ZM1704.21 1161.85V1167.37H1682.26V1161.85H1704.21ZM1688.66 1151.71H1695.17V1192.08C1695.17 1193.92 1695.43 1195.3 1695.97 1196.22C1696.52 1197.12 1697.22 1197.72 1698.06 1198.04C1698.93 1198.33 1699.84 1198.48 1700.79 1198.48C1701.51 1198.48 1702.1 1198.44 1702.56 1198.37C1703.02 1198.28 1703.39 1198.2 1703.66 1198.15L1704.99 1203.99C1704.54 1204.16 1703.93 1204.32 1703.14 1204.49C1702.35 1204.67 1701.34 1204.77 1700.13 1204.77C1698.29 1204.77 1696.49 1204.37 1694.73 1203.58C1692.98 1202.79 1691.53 1201.58 1690.37 1199.97C1689.23 1198.35 1688.66 1196.31 1688.66 1193.84V1151.71ZM1730.76 1205.1C1726.93 1205.1 1723.58 1204.19 1720.69 1202.37C1717.82 1200.55 1715.58 1198 1713.96 1194.73C1712.36 1191.45 1711.56 1187.63 1711.56 1183.25C1711.56 1178.84 1712.36 1174.99 1713.96 1171.7C1715.58 1168.41 1717.82 1165.85 1720.69 1164.03C1723.58 1162.21 1726.93 1161.3 1730.76 1161.3C1734.58 1161.3 1737.93 1162.21 1740.79 1164.03C1743.68 1165.85 1745.92 1168.41 1747.52 1171.7C1749.14 1174.99 1749.95 1178.84 1749.95 1183.25C1749.95 1187.63 1749.14 1191.45 1747.52 1194.73C1745.92 1198 1743.68 1200.55 1740.79 1202.37C1737.93 1204.19 1734.58 1205.1 1730.76 1205.1ZM1730.76 1199.25C1733.66 1199.25 1736.05 1198.51 1737.93 1197.02C1739.8 1195.53 1741.19 1193.57 1742.09 1191.14C1742.99 1188.72 1743.44 1186.09 1743.44 1183.25C1743.44 1180.42 1742.99 1177.79 1742.09 1175.34C1741.19 1172.9 1739.8 1170.92 1737.93 1169.41C1736.05 1167.9 1733.66 1167.15 1730.76 1167.15C1727.85 1167.15 1725.46 1167.9 1723.59 1169.41C1721.71 1170.92 1720.32 1172.9 1719.42 1175.34C1718.52 1177.79 1718.07 1180.42 1718.07 1183.25C1718.07 1186.09 1718.52 1188.72 1719.42 1191.14C1720.32 1193.57 1721.71 1195.53 1723.59 1197.02C1725.46 1198.51 1727.85 1199.25 1730.76 1199.25ZM1759.89 1204.21V1161.85H1766.17V1168.25H1766.61C1767.39 1166.16 1768.78 1164.46 1770.81 1163.15C1772.83 1161.85 1775.11 1161.19 1777.65 1161.19C1778.12 1161.19 1778.72 1161.2 1779.44 1161.22C1780.15 1161.24 1780.7 1161.27 1781.06 1161.3V1167.92C1780.84 1167.87 1780.34 1167.78 1779.55 1167.67C1778.78 1167.54 1777.96 1167.48 1777.09 1167.48C1775.03 1167.48 1773.2 1167.91 1771.58 1168.78C1769.98 1169.62 1768.71 1170.8 1767.77 1172.31C1766.85 1173.8 1766.39 1175.5 1766.39 1177.41V1204.21H1759.89Z" fill="#3A4055"/>
<path d="M1427.08 1282.71H1421.69L1437.28 1240.24H1442.59L1458.18 1282.71H1452.79L1440.1 1246.96H1439.77L1427.08 1282.71ZM1429.07 1266.12H1450.8V1270.68H1429.07V1266.12ZM1464.8 1282.71V1240.24H1479.15C1482.46 1240.24 1485.19 1240.81 1487.32 1241.94C1489.45 1243.06 1491.02 1244.6 1492.04 1246.57C1493.07 1248.53 1493.58 1250.76 1493.58 1253.26C1493.58 1255.77 1493.07 1257.98 1492.04 1259.92C1491.02 1261.86 1489.45 1263.38 1487.34 1264.48C1485.22 1265.57 1482.52 1266.12 1479.23 1266.12H1467.62V1261.47H1479.06C1481.33 1261.47 1483.16 1261.14 1484.54 1260.48C1485.93 1259.82 1486.94 1258.88 1487.57 1257.66C1488.2 1256.43 1488.52 1254.96 1488.52 1253.26C1488.52 1251.56 1488.2 1250.08 1487.57 1248.81C1486.93 1247.53 1485.91 1246.55 1484.52 1245.86C1483.12 1245.16 1481.28 1244.8 1478.98 1244.8H1469.94V1282.71H1464.8ZM1484.79 1263.63L1495.24 1282.71H1489.27L1478.98 1263.63H1484.79ZM1535.82 1240.24V1282.71H1530.84L1507.7 1249.37H1507.29V1282.71H1502.15V1240.24H1507.12L1530.35 1273.67H1530.76V1240.24H1535.82ZM1563.69 1259.19V1263.76H1545.11V1259.19H1563.69ZM1585.88 1283.29C1583.15 1283.29 1580.71 1282.82 1578.56 1281.88C1576.43 1280.94 1574.74 1279.63 1573.48 1277.96C1572.24 1276.27 1571.56 1274.32 1571.45 1272.09H1576.68C1576.79 1273.46 1577.26 1274.64 1578.09 1275.64C1578.92 1276.62 1580 1277.38 1581.34 1277.92C1582.68 1278.46 1584.17 1278.73 1585.8 1278.73C1587.62 1278.73 1589.24 1278.41 1590.65 1277.77C1592.06 1277.14 1593.17 1276.25 1593.97 1275.12C1594.77 1273.98 1595.17 1272.67 1595.17 1271.18C1595.17 1269.62 1594.79 1268.24 1594.01 1267.05C1593.24 1265.85 1592.1 1264.91 1590.61 1264.23C1589.12 1263.56 1587.29 1263.22 1585.14 1263.22H1581.74V1258.66H1585.14C1586.82 1258.66 1588.3 1258.35 1589.57 1257.74C1590.86 1257.13 1591.86 1256.28 1592.58 1255.17C1593.31 1254.07 1593.68 1252.77 1593.68 1251.27C1593.68 1249.84 1593.36 1248.58 1592.73 1247.52C1592.09 1246.46 1591.19 1245.63 1590.03 1245.03C1588.88 1244.44 1587.53 1244.14 1585.97 1244.14C1584.5 1244.14 1583.12 1244.41 1581.82 1244.95C1580.53 1245.47 1579.48 1246.24 1578.67 1247.25C1577.85 1248.25 1577.41 1249.45 1577.34 1250.86H1572.36C1572.45 1248.63 1573.12 1246.68 1574.38 1245.01C1575.63 1243.33 1577.28 1242.01 1579.31 1241.07C1581.36 1240.13 1583.6 1239.66 1586.05 1239.66C1588.68 1239.66 1590.93 1240.19 1592.81 1241.26C1594.69 1242.31 1596.13 1243.7 1597.14 1245.43C1598.15 1247.15 1598.66 1249.02 1598.66 1251.02C1598.66 1253.42 1598.03 1255.46 1596.77 1257.14C1595.52 1258.83 1593.83 1260 1591.69 1260.65V1260.98C1594.37 1261.42 1596.46 1262.56 1597.97 1264.4C1599.48 1266.22 1600.23 1268.48 1600.23 1271.18C1600.23 1273.49 1599.6 1275.56 1598.34 1277.4C1597.1 1279.22 1595.4 1280.66 1593.24 1281.71C1591.09 1282.76 1588.63 1283.29 1585.88 1283.29ZM1607.72 1274V1269.77L1626.38 1240.24H1629.45V1246.79H1627.37L1613.27 1269.11V1269.44H1638.4V1274H1607.72ZM1627.7 1282.71V1272.71V1270.74V1240.24H1632.6V1282.71H1627.7ZM1646.17 1282.71V1278.97L1660.19 1263.63C1661.84 1261.83 1663.19 1260.27 1664.25 1258.95C1665.32 1257.6 1666.11 1256.35 1666.62 1255.17C1667.14 1253.98 1667.41 1252.74 1667.41 1251.44C1667.41 1249.95 1667.05 1248.65 1666.33 1247.56C1665.62 1246.47 1664.66 1245.63 1663.42 1245.03C1662.19 1244.44 1660.81 1244.14 1659.28 1244.14C1657.65 1244.14 1656.22 1244.48 1655.01 1245.16C1653.8 1245.82 1652.87 1246.75 1652.21 1247.96C1651.56 1249.16 1651.23 1250.57 1651.23 1252.19H1646.34C1646.34 1249.7 1646.91 1247.51 1648.06 1245.63C1649.21 1243.75 1650.77 1242.29 1652.75 1241.24C1654.74 1240.19 1656.97 1239.66 1659.44 1239.66C1661.93 1239.66 1664.14 1240.19 1666.06 1241.24C1667.98 1242.29 1669.49 1243.71 1670.58 1245.49C1671.67 1247.27 1672.22 1249.26 1672.22 1251.44C1672.22 1253 1671.93 1254.53 1671.37 1256.02C1670.81 1257.5 1669.85 1259.15 1668.46 1260.98C1667.09 1262.79 1665.19 1265 1662.76 1267.61L1653.22 1277.81V1278.15H1672.96V1282.71H1646.17ZM1681.53 1282.71V1278.97L1695.54 1263.63C1697.19 1261.83 1698.54 1260.27 1699.61 1258.95C1700.67 1257.6 1701.46 1256.35 1701.97 1255.17C1702.5 1253.98 1702.76 1252.74 1702.76 1251.44C1702.76 1249.95 1702.4 1248.65 1701.68 1247.56C1700.98 1246.47 1700.01 1245.63 1698.78 1245.03C1697.55 1244.44 1696.16 1244.14 1694.63 1244.14C1693 1244.14 1691.58 1244.48 1690.36 1245.16C1689.16 1245.82 1688.22 1246.75 1687.56 1247.96C1686.91 1249.16 1686.59 1250.57 1686.59 1252.19H1681.69C1681.69 1249.7 1682.27 1247.51 1683.41 1245.63C1684.56 1243.75 1686.12 1242.29 1688.1 1241.24C1690.09 1240.19 1692.32 1239.66 1694.8 1239.66C1697.28 1239.66 1699.49 1240.19 1701.41 1241.24C1703.33 1242.29 1704.84 1243.71 1705.93 1245.49C1707.02 1247.27 1707.57 1249.26 1707.57 1251.44C1707.57 1253 1707.29 1254.53 1706.72 1256.02C1706.17 1257.5 1705.2 1259.15 1703.82 1260.98C1702.45 1262.79 1700.55 1265 1698.11 1267.61L1688.58 1277.81V1278.15H1708.32V1282.71H1681.53ZM1730.73 1283.29C1727.61 1283.29 1724.94 1282.44 1722.75 1280.74C1720.55 1279.02 1718.87 1276.54 1717.71 1273.29C1716.55 1270.03 1715.97 1266.09 1715.97 1261.47C1715.97 1256.89 1716.55 1252.97 1717.71 1249.72C1718.88 1246.46 1720.57 1243.97 1722.77 1242.25C1724.98 1240.53 1727.63 1239.66 1730.73 1239.66C1733.83 1239.66 1736.47 1240.53 1738.67 1242.25C1740.88 1243.97 1742.57 1246.46 1743.73 1249.72C1744.9 1252.97 1745.49 1256.89 1745.49 1261.47C1745.49 1266.09 1744.91 1270.03 1743.75 1273.29C1742.59 1276.54 1740.91 1279.02 1738.71 1280.74C1736.51 1282.44 1733.85 1283.29 1730.73 1283.29ZM1730.73 1278.73C1733.83 1278.73 1736.23 1277.23 1737.94 1274.25C1739.66 1271.26 1740.52 1267 1740.52 1261.47C1740.52 1257.8 1740.12 1254.67 1739.33 1252.08C1738.56 1249.5 1737.44 1247.53 1735.97 1246.17C1734.52 1244.82 1732.77 1244.14 1730.73 1244.14C1727.66 1244.14 1725.26 1245.65 1723.53 1248.68C1721.81 1251.7 1720.94 1255.96 1720.94 1261.47C1720.94 1265.15 1721.33 1268.28 1722.1 1270.85C1722.88 1273.42 1723.99 1275.37 1725.44 1276.71C1726.91 1278.06 1728.67 1278.73 1730.73 1278.73ZM1766.64 1283.29C1764.21 1283.29 1762.02 1282.8 1760.07 1281.84C1758.12 1280.87 1756.56 1279.54 1755.38 1277.86C1754.21 1276.17 1753.56 1274.25 1753.45 1272.09H1758.43C1758.62 1274.01 1759.49 1275.6 1761.04 1276.86C1762.6 1278.1 1764.47 1278.73 1766.64 1278.73C1768.38 1278.73 1769.93 1278.32 1771.29 1277.5C1772.65 1276.69 1773.73 1275.57 1774.5 1274.14C1775.29 1272.71 1775.68 1271.08 1775.68 1269.27C1775.68 1267.42 1775.27 1265.77 1774.46 1264.32C1773.66 1262.85 1772.55 1261.7 1771.14 1260.85C1769.73 1260.01 1768.12 1259.58 1766.31 1259.57C1765.01 1259.55 1763.68 1259.75 1762.31 1260.17C1760.94 1260.57 1759.81 1261.09 1758.93 1261.72L1754.12 1261.14L1756.69 1240.24H1778.75V1244.8H1761L1759.51 1257.33H1759.76C1760.63 1256.64 1761.72 1256.06 1763.03 1255.61C1764.35 1255.15 1765.71 1254.92 1767.14 1254.92C1769.74 1254.92 1772.05 1255.54 1774.08 1256.79C1776.13 1258.02 1777.73 1259.71 1778.9 1261.85C1780.07 1263.99 1780.66 1266.44 1780.66 1269.19C1780.66 1271.9 1780.05 1274.32 1778.83 1276.45C1777.63 1278.56 1775.97 1280.23 1773.86 1281.46C1771.74 1282.68 1769.34 1283.29 1766.64 1283.29Z" fill="#3A4055"/>
</svg>
