<svg width="1683" height="642" viewBox="0 0 1683 642" fill="none" xmlns="http://www.w3.org/2000/svg">
<rect x="366.973" y="290.486" width="61.1879" height="61.1886" fill="#2AC558"/>
<path d="M428.158 275.189H412.86V275.171H351.722V340.803H351.672V351.674H290.484V340.803H290.434V269.066H290.483V214H428.158V275.189Z" fill="rgba(255,255,255,0.92)"/>
<path d="M275.188 244.594H275.171V366.972H275.188V366.986H336.342V367.022H397.562V366.972H428.156V428.16H330.42V428.157H275.188V428.16H214V214H275.188V244.594Z" fill="rgba(255,255,255,0.92)"/>
<path d="M520.368 357.731H580.794V385.613H489.887V257.052H520.368V357.731ZM604.422 281.168L604.243 281.079C599.581 281.079 595.636 279.465 592.319 276.238C589.002 273.01 587.388 269.065 587.388 264.403C587.388 259.831 589.092 255.976 592.409 252.838C595.726 249.701 599.671 248.087 604.333 248.087C608.994 248.087 612.939 249.701 616.256 252.928C619.573 256.155 621.277 260.011 621.277 264.493C621.277 269.155 619.663 273.1 616.346 276.327C613.029 279.555 609.084 281.168 604.422 281.168ZM589.181 385.523V291.927H618.498V385.523H589.181ZM692.69 289.416V289.596C704.793 289.596 713.937 293.361 720.034 300.802C726.13 308.243 729.178 318.374 729.178 331.194V385.702H699.862V337.021C699.862 323.484 694.304 316.671 683.097 316.671C677.449 316.671 673.056 318.732 669.829 322.856C666.601 326.98 664.987 332.629 664.987 339.89V385.613H635.582V292.016H664.987V301.699C672.07 293.54 681.304 289.416 692.69 289.416ZM790.73 388.213L790.64 388.302C775.309 388.302 762.937 383.73 753.434 374.586C743.931 365.441 739.18 353.607 739.18 338.994C739.18 324.65 743.752 312.815 752.896 303.492C762.041 294.168 773.965 289.506 788.757 289.506C803.819 289.506 815.742 294.078 824.528 303.223C833.314 312.367 837.707 323.932 837.707 337.918C837.707 341.594 837.438 344.821 836.99 347.6H767.779C770.02 358.359 777.82 363.738 791.178 363.738C800.143 363.738 806.419 360.6 809.915 354.235L836.362 361.945C833.404 368.669 827.935 374.765 819.866 380.144C811.798 385.523 802.115 388.213 790.73 388.213ZM767.868 330.029H809.108C808.66 325.636 806.598 321.87 802.833 318.732C799.067 315.595 794.316 314.071 788.578 314.071C782.84 314.071 778.089 315.684 774.413 318.822C770.737 321.96 768.586 325.725 767.868 330.029ZM888.859 388.213H888.769C876.039 388.213 865.28 383.461 856.495 374.048C847.709 364.634 843.316 352.89 843.316 338.815C843.316 324.739 847.709 312.995 856.495 303.581C865.28 294.168 876.039 289.416 888.769 289.416C899.886 289.416 908.851 293.182 915.754 300.623V292.016H945.16V385.613H915.754V377.006C908.672 384.447 899.707 388.213 888.859 388.213ZM894.148 362.124L894.059 362.214C900.603 362.214 905.982 360.062 910.196 355.669C914.41 351.276 916.561 345.628 916.561 338.725C916.561 331.822 914.41 326.263 910.196 321.96C905.982 317.657 900.603 315.505 894.148 315.505C887.783 315.505 882.583 317.657 878.459 321.96C874.335 326.263 872.273 331.822 872.273 338.725C872.273 345.718 874.335 351.366 878.459 355.669C882.583 359.972 887.783 362.124 894.148 362.124ZM961.706 385.613V251.583H991.112V385.613H961.706Z" fill="rgba(255,255,255,0.92)"/>
<path d="M1133.81 284.665H1066.84V306.988H1124.49V333.615H1066.84V358.09H1133.63V385.613H1037.08V257.052H1133.81V284.665ZM1211.86 251.583H1241.18V385.613H1211.77V377.006C1204.69 384.447 1195.72 388.213 1184.88 388.213C1172.14 388.213 1161.39 383.461 1152.6 374.048C1143.81 364.634 1139.42 352.89 1139.42 338.815C1139.42 324.739 1143.81 312.995 1152.6 303.581C1161.39 294.168 1172.14 289.416 1184.88 289.416C1195.99 289.416 1204.96 293.182 1211.86 300.623V251.583ZM1190.16 362.124L1190.07 362.214C1196.62 362.214 1202 360.062 1206.21 355.669C1210.43 351.276 1212.58 345.628 1212.58 338.725C1212.58 331.822 1210.43 326.263 1206.21 321.96C1202 317.657 1196.62 315.505 1190.16 315.505C1183.8 315.505 1178.6 317.657 1174.48 321.96C1170.35 326.263 1168.29 331.822 1168.29 338.725C1168.29 345.718 1170.35 351.366 1174.48 355.669C1178.6 359.972 1183.8 362.124 1190.16 362.124ZM1323.8 292.016L1353.2 292.196V382.296C1353.2 395.474 1348.72 406.233 1339.75 414.481C1330.79 422.729 1318.87 426.853 1303.89 426.853C1282.65 426.853 1267.49 418.694 1258.53 402.378L1283.9 393.233C1288.11 399.778 1295.02 403.005 1304.61 403.005C1310.8 403.005 1315.55 401.123 1318.78 397.357C1322 393.592 1323.62 388.571 1323.62 382.385V373.42C1316.71 380.861 1308.11 384.627 1297.71 384.627C1284.53 384.627 1273.59 380.054 1264.98 370.91C1256.38 361.765 1252.07 350.469 1252.07 336.932C1252.07 322.677 1256.38 311.202 1264.98 302.506C1273.59 293.809 1284.53 289.416 1297.89 289.416C1308.29 289.416 1316.89 293.182 1323.8 300.623V292.016ZM1303 358.448H1302.91C1309.36 358.448 1314.56 356.476 1318.51 352.531C1322.45 348.587 1324.42 343.476 1324.42 337.111C1324.42 330.746 1322.45 325.636 1318.51 321.691C1314.56 317.746 1309.36 315.774 1302.91 315.774C1296.45 315.774 1291.16 317.746 1287.13 321.691C1283.09 325.636 1281.12 330.746 1281.12 337.111C1281.12 343.476 1283.18 348.587 1287.22 352.531C1291.25 356.476 1296.54 358.448 1303 358.448ZM1415.56 388.213L1415.47 388.302C1400.14 388.302 1387.77 383.73 1378.26 374.586C1368.76 365.441 1364.01 353.607 1364.01 338.994C1364.01 324.65 1368.58 312.815 1377.73 303.492C1386.87 294.168 1398.8 289.506 1413.59 289.506C1428.65 289.506 1440.57 294.078 1449.36 303.223C1458.14 312.367 1462.54 323.932 1462.54 337.918C1462.54 341.594 1462.27 344.821 1461.82 347.6H1392.61C1394.85 358.359 1402.65 363.738 1416.01 363.738C1424.97 363.738 1431.25 360.6 1434.75 354.235L1461.19 361.945C1458.23 368.669 1452.77 374.765 1444.7 380.144C1436.63 385.523 1426.95 388.213 1415.56 388.213ZM1392.7 330.029H1433.94C1433.49 325.636 1431.43 321.87 1427.66 318.732C1423.9 315.595 1419.15 314.071 1413.41 314.071C1407.67 314.071 1402.92 315.684 1399.24 318.822C1395.57 321.96 1393.42 325.725 1392.7 330.029Z" fill="#2AC558"/>
</svg>